<?xml version="1.0" encoding="utf-8"?>
<!-- Generator: Adobe Illustrator 23.0.1, SVG Export Plug-In . SVG Version: 6.00 Build 0)  -->
<svg version="1.1" id="Layer_1" xmlns="http://www.w3.org/2000/svg" xmlns:xlink="http://www.w3.org/1999/xlink" x="0px" y="0px"
	 viewBox="0 0 1028 1028" style="enable-background:new 0 0 1028 1028;" xml:space="preserve">
<style type="text/css">
	.st0{display:none;fill:#1877F2;}
	.st1{fill:#1877F2;}
	.st2{fill:#FFFFFF;}
</style>
<g>
	<path class="st0" d="M1027,514C1027,231.2,797.8,2,515,2S3,231.2,3,514c0,255.5,187.2,467.4,432,505.8V662H305V514h130V401.2
		C435,272.9,511.4,202,628.4,202c56,0,114.6,10,114.6,10v126h-64.6c-63.6,0-83.4,39.5-83.4,80v96h142l-22.7,148H595v357.8
		C839.8,981.4,1027,769.5,1027,514z"/>
	<circle class="st1" cx="515" cy="515" r="513"/>
	<path class="st2" d="M691.4,533.9l20.2-118.8H585.2v-45.5c0-36.1,17.7-71.2,74.3-71.2H717V186.2c0,0-52.2-8.9-102-8.9
		c-104.1,0-172.2,63.1-172.2,177.4v60.4H327v118.8h115.8v316.6c23.2,3.6,47,5.5,71.2,5.5s48-1.9,71.2-5.5V533.9H691.4z"/>
</g>
</svg>
