<?xml version="1.0" encoding="utf-8"?>
<!-- Generator: Adobe Illustrator 24.0.0, SVG Export Plug-In . SVG Version: 6.00 Build 0)  -->
<svg version="1.1" id="Слой_5__x28_копия_x29_"
	 xmlns="http://www.w3.org/2000/svg" xmlns:xlink="http://www.w3.org/1999/xlink" x="0px" y="0px" viewBox="0 0 2000 2000"
	 style="enable-background:new 0 0 2000 2000;" xml:space="preserve">
<style type="text/css">
	.st0{fill:#FFFFFF;}
	.st1{fill:#2673C5;}
	.st2{fill:#24B8FA;}
	.st3{fill:#160F30;}
	.st4{display:none;}
	.st5{display:inline;}
	.st6{enable-background:new    ;}
	.st7{fill:#008686;}
	.st8{clip-path:url(#SVGID_2_);enable-background:new    ;}
	.st9{fill:#009999;}
	.st10{fill:#00A9A9;}
	.st11{clip-path:url(#SVGID_4_);enable-background:new    ;}
	.st12{fill:#008585;}
	.st13{clip-path:url(#SVGID_6_);enable-background:new    ;}
	.st14{fill:#00A8A8;}
	.st15{clip-path:url(#SVGID_8_);enable-background:new    ;}
	.st16{clip-path:url(#SVGID_10_);enable-background:new    ;}
	.st17{fill:#00D9D9;}
	.st18{fill:#00AEAE;}
	.st19{fill:#008080;}
	.st20{clip-path:url(#SVGID_12_);enable-background:new    ;}
	.st21{clip-path:url(#SVGID_14_);enable-background:new    ;}
	.st22{fill:#008A8A;}
	.st23{fill:#008F8F;}
	.st24{fill:#009494;}
	.st25{fill:#009E9E;}
	.st26{clip-path:url(#SVGID_16_);enable-background:new    ;}
	.st27{clip-path:url(#SVGID_18_);enable-background:new    ;}
	.st28{clip-path:url(#SVGID_20_);enable-background:new    ;}
	.st29{fill:#009F9F;}
	.st30{clip-path:url(#SVGID_22_);enable-background:new    ;}
	.st31{clip-path:url(#SVGID_24_);enable-background:new    ;}
	.st32{clip-path:url(#SVGID_26_);enable-background:new    ;}
	.st33{fill:#00A3A3;}
	.st34{clip-path:url(#SVGID_28_);enable-background:new    ;}
	.st35{clip-path:url(#SVGID_30_);enable-background:new    ;}
	.st36{clip-path:url(#SVGID_32_);enable-background:new    ;}
	.st37{clip-path:url(#SVGID_34_);enable-background:new    ;}
	.st38{clip-path:url(#SVGID_36_);enable-background:new    ;}
	.st39{clip-path:url(#SVGID_38_);enable-background:new    ;}
	.st40{clip-path:url(#SVGID_40_);enable-background:new    ;}
	.st41{clip-path:url(#SVGID_42_);enable-background:new    ;}
	.st42{fill:#00F2F2;}
	.st43{clip-path:url(#SVGID_44_);enable-background:new    ;}
	.st44{clip-path:url(#SVGID_46_);enable-background:new    ;}
	.st45{clip-path:url(#SVGID_48_);enable-background:new    ;}
	.st46{clip-path:url(#SVGID_50_);enable-background:new    ;}
	.st47{clip-path:url(#SVGID_52_);enable-background:new    ;}
	.st48{clip-path:url(#SVGID_54_);enable-background:new    ;}
	.st49{clip-path:url(#SVGID_56_);enable-background:new    ;}
	.st50{clip-path:url(#SVGID_58_);enable-background:new    ;}
	.st51{clip-path:url(#SVGID_60_);enable-background:new    ;}
	.st52{clip-path:url(#SVGID_62_);enable-background:new    ;}
	.st53{clip-path:url(#SVGID_64_);enable-background:new    ;}
	.st54{fill:#EB6609;}
	.st55{clip-path:url(#SVGID_66_);enable-background:new    ;}
	.st56{clip-path:url(#SVGID_68_);enable-background:new    ;}
	.st57{clip-path:url(#SVGID_70_);enable-background:new    ;}
	.st58{clip-path:url(#SVGID_72_);enable-background:new    ;}
	.st59{fill:#FFD533;}
	.st60{clip-path:url(#SVGID_74_);enable-background:new    ;}
	.st61{clip-path:url(#SVGID_76_);enable-background:new    ;}
	.st62{clip-path:url(#SVGID_78_);enable-background:new    ;}
	.st63{clip-path:url(#SVGID_80_);enable-background:new    ;}
	.st64{clip-path:url(#SVGID_82_);enable-background:new    ;}
	.st65{clip-path:url(#SVGID_84_);enable-background:new    ;}
	.st66{clip-path:url(#SVGID_86_);enable-background:new    ;}
	.st67{clip-path:url(#SVGID_88_);enable-background:new    ;}
	.st68{clip-path:url(#SVGID_90_);enable-background:new    ;}
	.st69{clip-path:url(#SVGID_92_);enable-background:new    ;}
	.st70{clip-path:url(#SVGID_94_);}
	.st71{clip-path:url(#SVGID_96_);enable-background:new    ;}
	.st72{clip-path:url(#SVGID_98_);enable-background:new    ;}
	.st73{clip-path:url(#SVGID_100_);enable-background:new    ;}
	.st74{clip-path:url(#SVGID_102_);enable-background:new    ;}
	.st75{clip-path:url(#SVGID_106_);}
	.st76{clip-path:url(#SVGID_108_);}
	.st77{clip-path:url(#SVGID_110_);}
	.st78{clip-path:url(#SVGID_112_);}
	.st79{clip-path:url(#SVGID_114_);enable-background:new    ;}
	.st80{clip-path:url(#SVGID_116_);}
	.st81{clip-path:url(#SVGID_118_);}
	.st82{clip-path:url(#SVGID_120_);enable-background:new    ;}
	.st83{clip-path:url(#SVGID_122_);enable-background:new    ;}
	.st84{clip-path:url(#SVGID_126_);}
</style>
<g id="Слой_3__x28_копия_x29_">
	<g>
		<path class="st0" d="M521,1766.6c-45.1,7.8-90.2,15.6-135.3,23.3c-87.9-464.4-175.7-928.7-263.6-1393.1
			c27.2-0.9,54.4-1.7,81.6-2.6c-16.3,7.3-32.7,14.6-49.1,21.9c12.3,10,24.6,20,36.8,30c85,421.2,170,842.4,254.9,1263.6
			c-8,11.1-16,22.1-24,33.2C455.3,1750.9,488.1,1758.8,521,1766.6z"/>
		<path class="st1" d="M1150.7,1479.2c-4.8,1.4-9.7,2.8-14.5,4.2l-131.7-551.8l-113-473.3l-5.6-23.6l-0.5,0
			c7.9-10.4,15.7-20.7,23.6-31.1c-20.7-9.9-41.3-19.7-62-29.6c28-0.9,56-1.8,84-2.6C1004.3,740.7,1077.5,1110,1150.7,1479.2z"/>
		<path class="st2" d="M1185,1652.1c-44.6,7.7-89.2,15.4-133.7,23.1c22.9-27.8,45.9-55.6,68.8-83.5c10.9-13.2,21.7-26.3,32.6-39.5
			l-16.4-68.8c4.8-1.4,9.7-2.8,14.5-4.2c4,20.3,8,40.5,12.1,60.8C1170.2,1577.4,1177.6,1614.7,1185,1652.1z"/>
		<path class="st1" d="M1152.9,1553.4l-0.3-1.1c-10.8,13.2-21.7,26.3-32.6,39.5l8.7-1.5l31.5-5.6L1152.9,1553.4z"/>
		<path class="st2" d="M780.9,1586.5c-103.5,30-206.9,60-310.4,90.1c-8,11.1-16.1,22.2-24.1,33.3c-85-421.2-170-842.4-254.9-1263.6
			c12.1,9.9,24.2,19.8,36.3,29.6C344,527.5,460.2,579.2,576.4,630.8C644.6,949.4,712.7,1268,780.9,1586.5z"/>
		<path class="st2" d="M1136.2,1483.4c-118.4,34.4-236.9,68.7-355.4,103.1C712.7,1268,644.6,949.4,576.4,630.8
			c8.2,3.6,16.4,7.3,24.6,10.9c87-58.8,174.1-117.6,261.1-176.4c7.8-10.2,15.5-20.4,23.3-30.6l0.5,0l5.6,23.6l113,473.3
			L1136.2,1483.4z"/>
		<path class="st1" d="M885.4,434.8c-7.8,10.2-15.5,20.4-23.3,30.6C775.1,524.2,688,583,601,641.8
			c-124.4-55.3-248.8-110.6-373.2-165.9c-12.1-9.9-24.2-19.8-36.3-29.6l35.8-0.6l634.3-10.5L885.4,434.8z"/>
		<path class="st2" d="M909,403.7c-7.9,10.4-15.8,20.7-23.6,31.1l-23.8,0.4l-634.3,10.5l-35.8,0.6c-12.3-10-24.6-20-36.8-30
			c16.3-7.3,32.7-14.6,49.1-21.9c214.5-6.7,428.9-13.5,643.4-20.2C867.7,384,888.4,393.9,909,403.7z"/>
		<path class="st0" d="M1152.7,1552.3c-10.8,13.2-21.7,26.3-32.6,39.5l-644.3,114.6l-29.1,5.2l-0.3-1.6c8-11.1,16.1-22.2,24.1-33.3
			c221.9-64.4,443.8-128.8,665.8-193.1L1152.7,1552.3z"/>
		<path class="st1" d="M1120.1,1591.7c-23,27.8-45.9,55.6-68.8,83.5c-176.7,30.5-353.5,61-530.3,91.4c-32.9-7.9-65.7-15.7-98.6-23.6
			c8-11.1,16-22.1,24-33.2C671,1670.5,895.5,1631.1,1120.1,1591.7z"/>
	</g>
	<g>
		<path class="st1" d="M1887.6,282c-152.4,480.5-304.7,961-457.1,1441.5c-19.6-7.5-39.2-15.1-58.9-22.6c12.9-2.9,25.9-5.8,38.8-8.7
			l-20-41.1l9.7-29.8c139.1-429,278.2-858,417.3-1287c12.9-8.2,25.8-16.5,38.7-24.7c-19.7-14.4-39.3-28.7-59-43.1
			C1827.3,271.6,1857.5,276.8,1887.6,282z"/>
		<path class="st0" d="M1122.7,193.1c7.9,12.1,15.8,24.2,23.7,36.4l-7.6,22.5L949.9,809.9l-188.8,557.9l-0.3,0.9
			c-19.8,2.4-39.5,4.7-59.3,7.1C835.3,966,969,556.3,1102.8,146.6c40,6.9,80,13.8,119.9,20.7C1189.4,175.9,1156,184.5,1122.7,193.1z
			"/>
		<path class="st2" d="M1414.3,444.5c-109,295.5-218,591-326.9,886.6c-61.6,6.9-123.3,13.8-184.9,20.6c-47.2,5.6-94.4,11.3-141.6,17
			l0.3-0.9l188.8-557.9L1138.8,252l7.6-22.5c7,10.7,14,21.5,21,32.2c64.4,65.1,128.9,130.3,193.3,195.4
			C1378.6,452.9,1396.4,448.7,1414.3,444.5z"/>
		<path class="st2" d="M1400.1,1621.2l-9.7,29.8c-6.4-13-12.7-26.1-19.1-39.2c-93.5-93.7-187-187.5-280.5-281.2
			c-1.2,0.1-2.4,0.3-3.5,0.4c109-295.5,218-591,326.9-886.6c121.6-28.6,243.2-57.2,364.8-85.8c12.8-8.2,25.6-16.3,38.4-24.5
			C1678.3,763.2,1539.2,1192.2,1400.1,1621.2z"/>
		<path class="st2" d="M1856.2,309.5c-12.9,8.2-25.8,16.5-38.7,24.7l-33.6-5.3c-212.5-33.1-425-66.3-637.4-99.4
			c-7.9-12.1-15.8-24.2-23.7-36.4c33.4-8.6,66.7-17.2,100.1-25.9c191.5,33,383,66.1,574.4,99.1
			C1816.8,280.7,1836.5,295.1,1856.2,309.5z"/>
		<path class="st1" d="M1817.5,334.2c-12.8,8.2-25.6,16.3-38.4,24.5c-139.5,32.8-278.9,65.6-418.4,98.4
			c-64.4-65.1-128.9-130.3-193.3-195.4c-7-10.7-14-21.5-21-32.2c212.5,33.1,425,66.3,637.4,99.4L1817.5,334.2z"/>
		<path class="st2" d="M1410.4,1692.1c-12.9,2.9-25.9,5.8-38.8,8.7c-229.9-88.4-459.8-176.8-689.7-265.2c6.5-20,13-39.9,19.6-59.9
			c19.8-2.4,39.5-4.7,59.3-7.1l-8.9,26.2c212.8,85.4,425.7,170.8,638.5,256.2L1410.4,1692.1z"/>
		<path class="st0" d="M1390.4,1651c-212.8-85.4-425.7-170.8-638.5-256.2l8.9-26.2c47.2-5.6,94.4-11.3,141.6-17
			c62.8-7,125.7-14,188.5-21c93.5,93.7,187,187.5,280.5,281.2C1377.7,1624.9,1384.1,1638,1390.4,1651z"/>
	</g>
	<path class="st1" d="M1720.8,643c-5.7-7.5-11.5-15.1-17.2-22.6c8.6-0.1,17.2-0.2,25.8-0.3C1726.5,627.7,1723.6,635.4,1720.8,643z"
		/>
	<path class="st1" d="M494.6,447.8c3.4-9.5,6.9-19,10.3-28.5c3.1,9.6,6.2,19.1,9.3,28.7C507.6,447.9,501.1,447.9,494.6,447.8z"/>
	<path class="st0" d="M248.3,750.8c8.9,1.8,17.9,3.6,26.8,5.4c-7.7,5.4-15.3,10.8-23,16.3C250.8,765.3,249.5,758.1,248.3,750.8z"/>
	<path class="st1" d="M756.8,1659.6c2.1-7,4.3-14,6.4-21c3.5,6.5,6.9,13.1,10.4,19.6C768,1658.7,762.4,1659.1,756.8,1659.6z"/>
	<path class="st0" d="M1016.3,1493.9c1,9.6,1.9,19.1,2.9,28.7c8.5-6.5,17-13,25.5-19.5C1035.2,1500.1,1025.7,1497,1016.3,1493.9z"/>
	<path class="st2" d="M1085.4,417.4c-5.5-6.2-11-12.4-16.5-18.7c8.5,0.2,17.1,0.5,25.6,0.7C1091.4,405.4,1088.4,411.4,1085.4,417.4z
		"/>
	<path class="st2" d="M1480.3,275.9c1.6,8.2,3.2,16.5,4.8,24.7c5.7-7.5,11.5-15,17.2-22.5C1495,277.4,1487.6,276.7,1480.3,275.9z"/>
</g>
<g id="Слой_2__x28_копия_x29_">
	<path class="st3" d="M1122.7,193.1l376.4,59.7l357.1,56.7l-222,688.6l-223.7,694l-344.9-139l-352.2-141.9L917,804.9L1122.7,193.1
		 M1081.6,125.4c-147.9,440.2-295.9,880.4-443.8,1320.5c270.1,108.8,540.1,217.7,810.2,326.5c162.4-503.9,324.9-1007.7,487.3-1511.6
		C1650.8,215.7,1366.2,170.5,1081.6,125.4L1081.6,125.4z"/>
	<path class="st3" d="M1064.3,1628.9l-641.9,114.2L154.6,416.2L909,403.7l44.6,185.1c11.4-37.6,22.9-75.1,35.1-112.4
		c-10.7-44.6-21.5-89.3-32.2-133.9C664.6,347.3,372.8,352.1,81,357c98,485.3,195.9,970.6,293.9,1456l801.4-142.6
		C1139.3,1655.3,1102.1,1641.2,1064.3,1628.9z"/>
	<path class="st3" d="M1167.4,261.7l611.7,97l-407.7,1253.1l-581.6-234.4L1167.4,261.7"/>
	<path class="st3" d="M875.5,1588.6c-27.6-11.5-50.4-21.4-74.7-40.1c-24.5-18.9-46.9-40.4-66.7-64.1c-19.1-22.9-36.4-49.2-39.3-79
		c-2.3-23.8,4.8-47.3,11.8-70.1c48.2-156.7,96.3-313.3,144.5-470c9.8-31.8,19.6-63.6,29.3-95.5c0-15.2,11.3-34,15-48.8
		c4-15.9,9.1-26.3,18.1-40.3l-51.4-215.4l-634.3,10.5l242.7,1200.7l432.3-76.9C893.6,1596.2,884.5,1592.4,875.5,1588.6z"/>
	<path class="st3" d="M1935.4,260.8c9.9,34.5,19.8,68.9,29.6,103.4c-157.2,499-314.4,998.1-471.6,1497.1
		c-260-107.2-520-214.4-780-321.7c0.4-31.4,0.8-62.9,1.2-94.3c243.9,101.6,487.7,203.2,731.6,304.7
		C1609.3,1253.6,1772.3,757.2,1935.4,260.8z"/>
	<path class="st3" d="M81,357c-15.3,39.5-30.6,79-46,118.5c95.9,466.4,191.9,932.8,287.8,1399.1c295.1-56.4,590.1-112.9,885.2-169.3
		c-36.7-17.7-73.4-35.5-110-53.2c-230.6,41.9-461.1,83.8-691.7,125.8C297.8,1304.2,189.4,830.6,81,357z"/>
	<g class="st4">
		<g class="st5">
			<g class="st6">
				<g>
					<polygon class="st7" points="1245.2,372.1 1253.7,380.8 1233.4,393.9 1224.9,385.2 					"/>
				</g>
				<g class="st6">
					<defs>
						<path id="SVGID_1_" class="st6" d="M1225.5,407l8.6,8.7c-2.6,7-5.2,14-7.8,21l-8.6-8.7C1220.3,420.9,1222.9,414,1225.5,407z"
							/>
					</defs>
					<clipPath id="SVGID_2_">
						<use xlink:href="#SVGID_1_"  style="overflow:visible;"/>
					</clipPath>
					<g class="st8">
						<path class="st9" d="M1225.5,407l8.6,8.7c-2.6,7-5.2,14-7.8,21l-8.6-8.7C1220.3,420.9,1222.9,414,1225.5,407"/>
					</g>
				</g>
				<g>
					<polygon class="st10" points="1224.9,385.2 1233.4,393.9 1250.8,421.7 1242.3,413 					"/>
				</g>
				<g class="st6">
					<defs>
						<path id="SVGID_3_" class="st6" d="M1242.3,413l8.6,8.7c-5.6-2-11.2-4-16.8-6l-8.6-8.7C1231.1,409,1236.7,411,1242.3,413z"/>
					</defs>
					<clipPath id="SVGID_4_">
						<use xlink:href="#SVGID_3_"  style="overflow:visible;"/>
					</clipPath>
					<g class="st11">
						<path class="st12" d="M1242.3,413l8.6,8.7c-5.6-2-11.2-4-16.8-6l-8.6-8.7C1231.1,409,1236.7,411,1242.3,413"/>
					</g>
				</g>
				<g class="st6">
					<defs>
						<path id="SVGID_5_" class="st6" d="M1245.2,372.1l8.6,8.7c5.9,9.5,11.9,19,17.8,28.5c8.8,14,17.5,28,26.3,42
							c8.9,14.2,17.8,28.4,26.7,42.6c26.2,41.8,52.4,83.6,78.6,125.5l-8.6-8.7c-26.2-41.8-52.4-83.6-78.6-125.5
							c-8.9-14.2-17.8-28.4-26.7-42.6c-8.8-14-17.5-28-26.3-42C1257.1,391.1,1251.1,381.6,1245.2,372.1z"/>
					</defs>
					<clipPath id="SVGID_6_">
						<use xlink:href="#SVGID_5_"  style="overflow:visible;"/>
					</clipPath>
					<g class="st13">
						<path class="st14" d="M1245.2,372.1l8.6,8.7c5.9,9.5,11.9,19,17.8,28.5c8.8,14,17.5,28,26.3,42c8.9,14.2,17.8,28.4,26.7,42.6
							c26.2,41.8,52.4,83.6,78.6,125.5l-8.6-8.7c-26.2-41.8-52.4-83.6-78.6-125.5c-8.9-14.2-17.8-28.4-26.7-42.6
							c-8.8-14-17.5-28-26.3-42C1257.1,391.1,1251.1,381.6,1245.2,372.1"/>
					</g>
				</g>
				<g class="st6">
					<defs>
						<path id="SVGID_7_" class="st6" d="M1271.6,393.5c0,5.3,0,10.6-0.1,15.9l-8.6-8.7c0-5.3,0-10.6,0.1-15.9
							C1265.6,387.4,1269,390.9,1271.6,393.5z"/>
					</defs>
					<clipPath id="SVGID_8_">
						<use xlink:href="#SVGID_7_"  style="overflow:visible;"/>
					</clipPath>
					<g class="st15">
						<path class="st14" d="M1263.1,384.8l8.6,8.7c0,5.3,0,10.6-0.1,15.9l-8.6-8.7C1263,395.3,1263,390.1,1263.1,384.8"/>
					</g>
				</g>
				<g class="st6">
					<defs>
						<path id="SVGID_9_" class="st6" d="M1283.9,387.2l8.6,8.7c-6.9-0.8-13.9-1.6-20.8-2.4l-8.6-8.7
							C1270,385.6,1277,386.4,1283.9,387.2z"/>
					</defs>
					<clipPath id="SVGID_10_">
						<use xlink:href="#SVGID_9_"  style="overflow:visible;"/>
					</clipPath>
					<g class="st16">
						<path class="st12" d="M1283.9,387.2l8.6,8.7c-6.9-0.8-13.9-1.6-20.8-2.4l-8.6-8.7C1270,385.6,1277,386.4,1283.9,387.2"/>
					</g>
				</g>
				<g>
					<path class="st17" d="M1202,322.3c27.3,21.6,54.6,43.3,81.9,64.9c-6.9-0.8-13.9-1.6-20.8-2.4c0,5.3,0,10.6-0.1,15.9
						c-5.9-9.5-11.9-19-17.8-28.5l-20.3,13.1l17.4,27.8c-5.6-2-11.2-4-16.8-6c-2.6,7-5.2,14-7.8,21
						C1212.5,392.7,1207.2,357.4,1202,322.3z"/>
				</g>
				<g>
					<polygon class="st10" points="1268.8,455.2 1277.4,463.9 1304.1,506.5 1295.5,497.8 					"/>
				</g>
				<g>
					<polygon class="st18" points="1033,812 1041.6,820.7 1041.9,844.5 1033.4,835.8 					"/>
				</g>
				<g>
					<polygon class="st19" points="1041.6,835.4 1050.1,844.1 1041.9,844.5 1033.4,835.8 					"/>
				</g>
				<g class="st6">
					<defs>
						<path id="SVGID_11_" class="st6" d="M1050.1,844.1c-10.9,6.6-24.7,11.9-42.6,16l-8.6-8.7c17.9-4.1,31.7-9.4,42.6-16
							C1044.2,838,1047.6,841.5,1050.1,844.1z"/>
					</defs>
					<clipPath id="SVGID_12_">
						<use xlink:href="#SVGID_11_"  style="overflow:visible;"/>
					</clipPath>
					<g class="st20">
						<path class="st12" d="M1041.6,835.4l8.6,8.7c-10.9,6.6-24.7,11.9-42.6,16l-8.6-8.7C1016.9,847.3,1030.7,842,1041.6,835.4"/>
					</g>
				</g>
				<g>
					<path class="st17" d="M1180.8,508.7c21.8-19.6,38.7-23.9,88-53.5l26.7,42.6c-216,148.7-189.3,254.7-227.7,312.6L1033,812
						l0.4,23.8l8.2-0.4c-10.9,6.6-24.7,11.9-42.6,16C1097.9,749.4,1030,632.1,1180.8,508.7z"/>
				</g>
				<g>
					<polygon class="st19" points="1067.9,810.4 1076.4,819.1 1041.6,820.7 1033,812 					"/>
				</g>
				<g class="st6">
					<defs>
						<path id="SVGID_13_" class="st6" d="M1295.5,497.8l8.6,8.7c-216,148.7-189.3,254.7-227.7,312.6l-8.6-8.7
							C1106.2,752.5,1079.6,646.5,1295.5,497.8z"/>
					</defs>
					<clipPath id="SVGID_14_">
						<use xlink:href="#SVGID_13_"  style="overflow:visible;"/>
					</clipPath>
					<g class="st21">
						<path class="st12" d="M1295.5,497.8l8.6,8.7c-22.4,15.4-42.2,30.4-59.7,44.9l-8.6-8.7C1253.3,528.2,1273.1,513.2,1295.5,497.8
							"/>
						<path class="st22" d="M1235.8,542.7l8.6,8.7c-25.8,21.4-46.7,41.7-63.8,61.1l-8.6-8.7C1189.1,584.4,1210,564.1,1235.8,542.7"
							/>
						<path class="st23" d="M1172,603.7l8.6,8.7c-12.7,14.4-23.3,28.2-32.2,41.4l-8.6-8.7C1148.7,631.9,1159.3,618.1,1172,603.7"/>
						<path class="st24" d="M1139.8,645.2l8.6,8.7c-8.4,12.5-15.4,24.5-21.2,36l-8.6-8.7C1124.4,669.7,1131.4,657.7,1139.8,645.2"/>
						<path class="st9" d="M1118.6,681.1l8.6,8.7c-7.2,14.1-12.7,27.4-17.2,39.9l-8.6-8.7C1105.9,708.5,1111.4,695.2,1118.6,681.1"
							/>
						<path class="st25" d="M1101.3,721l8.6,8.7c-8.5,23.3-13.6,43.8-20,61.5l-8.6-8.7C1087.7,764.8,1092.9,744.3,1101.3,721"/>
						<path class="st9" d="M1081.3,782.5l8.6,8.7c-2.3,6.3-4.8,12.3-7.6,17.9l-8.6-8.7C1076.5,794.8,1079,788.8,1081.3,782.5"/>
						<path class="st24" d="M1073.7,800.4l8.6,8.7c-1.8,3.5-3.7,6.8-5.8,10l-8.6-8.7C1070,807.2,1071.9,803.8,1073.7,800.4"/>
					</g>
				</g>
				<g class="st6">
					<defs>
						<path id="SVGID_15_" class="st6" d="M1569.5,423.1c-87.1,0-175.8,30.7-245,70.8l-8.6-8.7c69.2-40.1,157.9-70.8,245-70.8
							c3.2,0,6.4,0,9.6,0.1l8.6,8.7C1575.9,423.2,1572.7,423.1,1569.5,423.1z"/>
					</defs>
					<clipPath id="SVGID_16_">
						<use xlink:href="#SVGID_15_"  style="overflow:visible;"/>
					</clipPath>
					<g class="st26">
						<path class="st12" d="M1570.6,414.6l8.6,8.7c-3.2-0.1-6.4-0.1-9.6-0.1c-87.1,0-175.8,30.7-245,70.8l-8.6-8.7
							c69.2-40.1,157.9-70.8,245-70.8C1564.2,414.4,1567.4,414.5,1570.6,414.6"/>
					</g>
				</g>
				<g class="st6">
					<defs>
						<path id="SVGID_17_" class="st6" d="M1394.5,610.7l8.6,8.7c-2.9,10.4-5.7,20.8-8.6,31.2l-8.6-8.7
							C1388.8,631.4,1391.7,621.1,1394.5,610.7z"/>
					</defs>
					<clipPath id="SVGID_18_">
						<use xlink:href="#SVGID_17_"  style="overflow:visible;"/>
					</clipPath>
					<g class="st27">
						<path class="st25" d="M1394.5,610.7l8.6,8.7c-2.9,10.4-5.7,20.8-8.6,31.2l-8.6-8.7C1388.8,631.4,1391.7,621.1,1394.5,610.7"/>
					</g>
				</g>
				<g>
					<path class="st17" d="M1245.2,372.1c5.9,9.5,11.9,19,17.8,28.5c8.8,14,17.5,28,26.3,42c8.9,14.2,17.8,28.4,26.7,42.6
						c26.2,41.8,52.4,83.6,78.6,125.5c-2.9,10.4-5.7,20.8-8.6,31.2l-90.4-144l-26.7-42.6l-26.5-42.2l-17.4-27.8L1245.2,372.1z"/>
				</g>
				<g class="st6">
					<defs>
						<path id="SVGID_19_" class="st6" d="M1665.7,427l8.6,8.7c-1.2,0-2.4,0.1-3.7,0.1c-14.7,0-29.4-3.1-44.2-6.3
							c-14.8-3.1-29.7-6.3-44.8-6.3c-0.8,0-1.6,0-2.4,0l-8.6-8.7c0.8,0,1.6,0,2.4,0c15.2,0,30,3.1,44.8,6.3
							c14.8,3.1,29.4,6.3,44.2,6.3C1663.2,427.1,1664.4,427,1665.7,427z"/>
					</defs>
					<clipPath id="SVGID_20_">
						<use xlink:href="#SVGID_19_"  style="overflow:visible;"/>
					</clipPath>
					<g class="st28">
						<path class="st12" d="M1665.7,427l8.6,8.7c-1.2,0-2.4,0.1-3.7,0.1c-14.7,0-29.4-3.1-44.2-6.3c-14.8-3.1-29.7-6.3-44.8-6.3
							c-0.8,0-1.6,0-2.4,0l-8.6-8.7c0.8,0,1.6,0,2.4,0c15.2,0,30,3.1,44.8,6.3c14.8,3.1,29.4,6.3,44.2,6.3
							C1663.2,427.1,1664.4,427,1665.7,427"/>
					</g>
				</g>
				<g>
					<polygon class="st29" points="1675.4,404.8 1683.9,413.5 1674.2,435.7 1665.7,427 					"/>
				</g>
				<g>
					<polygon class="st19" points="1697.1,413.8 1705.7,422.5 1683.9,413.5 1675.4,404.8 					"/>
				</g>
				<g>
					<polygon class="st29" points="1697.1,413.8 1705.7,422.5 1702.5,429.7 1694,421.1 					"/>
				</g>
				<g class="st6">
					<defs>
						<path id="SVGID_21_" class="st6" d="M1748,392.5c-15.5,19.8-30.6,31.2-45.5,37.3l-8.6-8.7c14.9-6.1,30-17.5,45.5-37.3
							C1742.1,386.4,1745.5,389.9,1748,392.5z"/>
					</defs>
					<clipPath id="SVGID_22_">
						<use xlink:href="#SVGID_21_"  style="overflow:visible;"/>
					</clipPath>
					<g class="st30">
						<path class="st23" d="M1739.5,383.8l8.6,8.7c-2.2,2.8-4.5,5.5-6.7,8l-8.6-8.7C1735,389.3,1737.3,386.6,1739.5,383.8"/>
						<path class="st22" d="M1732.8,391.8l8.6,8.7c-5,5.7-10,10.6-15,14.7l-8.6-8.7C1722.8,402.4,1727.8,397.5,1732.8,391.8"/>
						<path class="st12" d="M1717.8,406.5l8.6,8.7c-8,6.6-16,11.3-23.8,14.5l-8.6-8.7C1701.9,417.8,1709.8,413.1,1717.8,406.5"/>
					</g>
				</g>
				<g>
					<path class="st17" d="M1677.7,394c20.1,0,40.5-2.8,61.7-10.2c-15.5,19.8-30.6,31.2-45.5,37.3l3.2-7.2l-21.8-9l-9.7,22.1
						c-1.2,0-2.4,0.1-3.7,0.1c-14.7,0-29.4-3.1-44.2-6.3c-14.8-3.1-29.7-6.3-44.8-6.3c-0.8,0-1.6,0-2.4,0c-3.2-0.1-6.4-0.1-9.6-0.1
						c-87.1,0-175.8,30.7-245,70.8c-8.9-14.2-17.8-28.4-26.7-42.6c4.6-2.9,9.4-5.9,14.4-9.2c68.5-53.2,125.9-68.7,177.6-68.7
						c35.6,0,68.6,7.3,100.7,14.6C1614.2,386.7,1645.5,394,1677.7,394z"/>
				</g>
				<g class="st6">
					<defs>
						<path id="SVGID_23_" class="st6" d="M1438.3,802.1c-1.4,2.6-2.9,5.3-4.3,7.9l-8.6-8.7c1.4-2.6,2.9-5.3,4.3-7.9
							C1432.4,796,1435.8,799.5,1438.3,802.1z"/>
					</defs>
					<clipPath id="SVGID_24_">
						<use xlink:href="#SVGID_23_"  style="overflow:visible;"/>
					</clipPath>
					<g class="st31">
						<path class="st24" d="M1429.8,793.4l8.6,8.7c-1.4,2.6-2.9,5.3-4.3,7.9l-8.6-8.7C1426.9,798.7,1428.4,796,1429.8,793.4"/>
					</g>
				</g>
				<g>
					<path class="st17" d="M1429.8,793.4c-1.4,2.6-2.9,5.3-4.3,7.9c-0.4,5.4-0.7,10.8-1.1,16.1l-382.8,18l-8.2,0.4L1033,812
						l34.9-1.6L1429.8,793.4z"/>
				</g>
				<g class="st6">
					<defs>
						<path id="SVGID_25_" class="st6" d="M1434,810c-0.4,5.4-0.7,10.8-1.1,16.1l-8.6-8.7c0.4-5.4,0.7-10.8,1.1-16.1
							C1428.1,803.9,1431.5,807.4,1434,810z"/>
					</defs>
					<clipPath id="SVGID_26_">
						<use xlink:href="#SVGID_25_"  style="overflow:visible;"/>
					</clipPath>
					<g class="st32">
						<path class="st33" d="M1425.5,801.3l8.6,8.7c-0.4,5.4-0.7,10.8-1.1,16.1l-8.6-8.7C1424.8,812.1,1425.1,806.7,1425.5,801.3"/>
					</g>
				</g>
				<g>
					<polygon class="st19" points="1424.4,817.5 1432.9,826.1 1050.1,844.1 1041.6,835.4 					"/>
				</g>
				<g class="st6">
					<defs>
						<path id="SVGID_27_" class="st6" d="M1554.4,738.7c-4.6,0.5-9.2,1.1-13.7,1.6l-8.6-8.7c4.6-0.5,9.2-1.1,13.7-1.6
							C1548.4,732.6,1551.8,736.1,1554.4,738.7z"/>
					</defs>
					<clipPath id="SVGID_28_">
						<use xlink:href="#SVGID_27_"  style="overflow:visible;"/>
					</clipPath>
					<g class="st34">
						<path class="st12" d="M1545.8,730l8.6,8.7c-4.6,0.5-9.2,1.1-13.7,1.6l-8.6-8.7C1536.7,731.1,1541.3,730.6,1545.8,730"/>
					</g>
				</g>
				<g>
					<polygon class="st29" points="1694,421.1 1702.5,429.7 1561.8,750.8 1553.3,742.1 					"/>
				</g>
				<g>
					<path class="st17" d="M1675.4,404.8l21.8,9l-3.2,7.2l-140.7,321c-2.5-4-4.9-8-7.4-12.1c-4.6,0.5-9.2,1.1-13.7,1.6L1665.7,427
						L1675.4,404.8z"/>
				</g>
				<g class="st6">
					<defs>
						<path id="SVGID_29_" class="st6" d="M1448,759.9l8.6,8.7c14.1,23,28.2,46,42.2,69l-8.6-8.7
							C1476.2,805.9,1462.1,782.9,1448,759.9z"/>
					</defs>
					<clipPath id="SVGID_30_">
						<use xlink:href="#SVGID_29_"  style="overflow:visible;"/>
					</clipPath>
					<g class="st35">
						<path class="st14" d="M1448,759.9l8.6,8.7c14.1,23,28.2,46,42.2,69l-8.6-8.7C1476.2,805.9,1462.1,782.9,1448,759.9"/>
					</g>
				</g>
				<g class="st6">
					<defs>
						<path id="SVGID_31_" class="st6" d="M1490.3,828.9l8.6,8.7c-22.3,2-44.7,4.1-67.1,6.1l-8.6-8.7
							C1445.6,833,1467.9,830.9,1490.3,828.9z"/>
					</defs>
					<clipPath id="SVGID_32_">
						<use xlink:href="#SVGID_31_"  style="overflow:visible;"/>
					</clipPath>
					<g class="st36">
						<path class="st12" d="M1490.3,828.9l8.6,8.7c-22.3,2-44.7,4.1-67.1,6.1l-8.6-8.7C1445.6,833,1467.9,830.9,1490.3,828.9"/>
					</g>
				</g>
				<g>
					<path class="st17" d="M1448,759.9c14.1,23,28.2,46,42.2,69c-22.3,2-44.7,4.1-67.1,6.1c0.4-5.9,0.8-11.7,1.2-17.6
						c0.4-5.4,0.7-10.8,1.1-16.1c1.4-2.6,2.9-5.3,4.3-7.9C1435.9,782.2,1442,771.1,1448,759.9z"/>
				</g>
				<g class="st6">
					<defs>
						<path id="SVGID_33_" class="st6" d="M1545.8,730l8.6,8.7c2.5,4,4.9,8,7.4,12.1c14.9,24.2,29.8,48.4,44.7,72.6l-8.6-8.7
							c-14.9-24.2-29.8-48.4-44.7-72.6C1550.8,738.1,1548.3,734.1,1545.8,730z"/>
					</defs>
					<clipPath id="SVGID_34_">
						<use xlink:href="#SVGID_33_"  style="overflow:visible;"/>
					</clipPath>
					<g class="st37">
						<path class="st14" d="M1545.8,730l8.6,8.7c2.5,4,4.9,8,7.4,12.1c14.9,24.2,29.8,48.4,44.7,72.6l-8.6-8.7
							c-14.9-24.2-29.8-48.4-44.7-72.6C1550.8,738.1,1548.3,734.1,1545.8,730"/>
					</g>
				</g>
				<g class="st6">
					<defs>
						<path id="SVGID_35_" class="st6" d="M1597.9,814.7l8.6,8.7c-19,4.4-38.1,8.9-57.2,13.4l-8.6-8.7
							C1559.8,823.6,1578.9,819.2,1597.9,814.7z"/>
					</defs>
					<clipPath id="SVGID_36_">
						<use xlink:href="#SVGID_35_"  style="overflow:visible;"/>
					</clipPath>
					<g class="st38">
						<path class="st12" d="M1597.9,814.7l8.6,8.7c-19,4.4-38.1,8.9-57.2,13.4l-8.6-8.7C1559.8,823.6,1578.9,819.2,1597.9,814.7"/>
					</g>
				</g>
				<g>
					<path class="st17" d="M1545.8,730c2.5,4,4.9,8,7.4,12.1c14.9,24.2,29.8,48.4,44.7,72.6c-19,4.4-38.1,8.9-57.2,13.4
						c-17.7-30.4-35.3-60.7-53-91.1c14.8-1.8,29.6-3.6,44.4-5.3C1536.7,731.1,1541.3,730.6,1545.8,730z"/>
				</g>
			</g>
			<g class="st6">
				<g class="st6">
					<defs>
						<path id="SVGID_37_" class="st6" d="M1415.2,643.7l8.6,8.7c8.3,13.3,16.7,26.7,25,40l-8.6-8.7
							C1431.9,670.4,1423.6,657,1415.2,643.7z"/>
					</defs>
					<clipPath id="SVGID_38_">
						<use xlink:href="#SVGID_37_"  style="overflow:visible;"/>
					</clipPath>
					<g class="st39">
						<path class="st14" d="M1415.2,643.7l8.6,8.7c8.3,13.3,16.7,26.7,25,40l-8.6-8.7C1431.9,670.4,1423.6,657,1415.2,643.7"/>
					</g>
				</g>
				<g class="st6">
					<defs>
						<path id="SVGID_39_" class="st6" d="M1440.3,683.7l8.6,8.7c-2.9,10.2-5.8,20.5-8.7,30.7l-8.6-8.7
							C1434.4,704.2,1437.4,693.9,1440.3,683.7z"/>
					</defs>
					<clipPath id="SVGID_40_">
						<use xlink:href="#SVGID_39_"  style="overflow:visible;"/>
					</clipPath>
					<g class="st40">
						<path class="st25" d="M1440.3,683.7l8.6,8.7c-2.9,10.2-5.8,20.5-8.7,30.7l-8.6-8.7C1434.4,704.2,1437.4,693.9,1440.3,683.7"/>
					</g>
				</g>
				<g>
					<path class="st17" d="M1415.2,643.7c8.3,13.3,16.7,26.7,25,40c-2.9,10.2-5.8,20.5-8.7,30.7l-24.9-39.7c0-0.1,0-0.2,0.1-0.3
						C1409,664.1,1412.3,653.9,1415.2,643.7z"/>
				</g>
			</g>
		</g>
	</g>
	<g class="st4">
		<g class="st5">
			<g class="st6">
				<g class="st6">
					<defs>
						<path id="SVGID_41_" class="st6" d="M831.1,616.6l-13.6,7.8c-5.3,3-11.5,4.5-18.2,4.5c-17.6,0-38.6-10.1-55.5-28.5
							c-25.9-28.2-32.2-65.2-14.1-82.6c1.8-1.7,3.8-3.2,5.9-4.4l13.6-7.8c-2.1,1.2-4.1,2.7-5.9,4.4c-18.1,17.4-11.8,54.4,14.1,82.6
							c16.9,18.4,37.9,28.5,55.5,28.5C819.5,621.2,825.8,619.7,831.1,616.6z"/>
					</defs>
					<clipPath id="SVGID_42_">
						<use xlink:href="#SVGID_41_"  style="overflow:visible;"/>
					</clipPath>
					<g class="st41">
						<path class="st12" d="M831.1,616.6l-13.6,7.8c-5.3,3-11.5,4.5-18.2,4.5c-17.6,0-38.6-10.1-55.5-28.5
							c-25.9-28.2-32.2-65.2-14.1-82.6c1.8-1.7,3.8-3.2,5.9-4.4l13.6-7.8c-2.1,1.2-4.1,2.7-5.9,4.4c-18.1,17.4-11.8,54.4,14.1,82.6
							c16.9,18.4,37.9,28.5,55.5,28.5C819.5,621.2,825.8,619.7,831.1,616.6"/>
					</g>
				</g>
				<g>
					<path class="st42" d="M767.3,501.1c17.6,0,38.7,10.1,55.5,28.5c25.9,28.2,32.2,65.2,14.1,82.6c-6.3,6.1-14.7,9-24.1,9
						c-17.6,0-38.6-10.1-55.5-28.5c-25.9-28.2-32.2-65.2-14.1-82.6C749.5,503.9,757.9,501.1,767.3,501.1z"/>
				</g>
			</g>
			<g class="st6">
				<g class="st6">
					<defs>
						<path id="SVGID_43_" class="st6" d="M609,519.5l-13.6,7.8c-9.2-1.4-18.5-2.1-27.8-2.1c-7.6,0-15.1,0.5-22.6,1.4
							c-18.2,2.3-35.9,7.3-52.4,15l13.6-7.8c16.6-7.6,34.2-12.7,52.4-15c7.5-0.9,15.1-1.4,22.6-1.4
							C590.4,517.4,599.7,518.1,609,519.5z"/>
					</defs>
					<clipPath id="SVGID_44_">
						<use xlink:href="#SVGID_43_"  style="overflow:visible;"/>
					</clipPath>
					<g class="st43">
						<path class="st12" d="M609,519.5l-13.6,7.8c-9.2-1.4-18.5-2.1-27.8-2.1c-7.6,0-15.1,0.5-22.6,1.4c-18.2,2.3-35.9,7.3-52.4,15
							l13.6-7.8c16.6-7.6,34.2-12.7,52.4-15c7.5-0.9,15.1-1.4,22.6-1.4C590.4,517.4,599.7,518.1,609,519.5"/>
					</g>
				</g>
				<g class="st6">
					<defs>
						<path id="SVGID_45_" class="st6" d="M506.1,533.8l-13.6,7.8c2.1-9.5,4.2-18.9,6.3-28.4l13.6-7.8
							C510.3,514.8,508.2,524.3,506.1,533.8z"/>
					</defs>
					<clipPath id="SVGID_46_">
						<use xlink:href="#SVGID_45_"  style="overflow:visible;"/>
					</clipPath>
					<g class="st44">
						<path class="st12" d="M506.1,533.8l-13.6,7.8c2.1-9.5,4.2-18.9,6.3-28.4l13.6-7.8C510.3,514.8,508.2,524.3,506.1,533.8"/>
					</g>
				</g>
				<g>
					<path class="st42" d="M572.3,494.1c5.1,0,10.7,0.2,16.8,0.9c6.6,8.2,13.2,16.3,19.9,24.5c-9.2-1.4-18.5-2.1-27.8-2.1
						c-7.6,0-15.1,0.5-22.6,1.4c-18.2,2.3-35.9,7.3-52.4,15c2.1-9.5,4.2-18.9,6.3-28.4c5.8-2.2,12.8-4.4,20.9-6.4
						c11-2.7,19.5-3.7,21.4-3.9C559.5,494.5,565.4,494.1,572.3,494.1z"/>
				</g>
			</g>
			<g class="st6">
				<g class="st6">
					<defs>
						<path id="SVGID_47_" class="st6" d="M647.2,570l-13.6,7.8c-17.4-4.4-35-6.7-52.5-6.7c-10.1,0-20.2,0.7-30.3,2.2
							c-25.1,3.7-48.9,11.9-70.8,24.5l13.6-7.8c21.9-12.5,45.8-20.8,70.8-24.5c10.1-1.5,20.2-2.2,30.3-2.2
							C612.2,563.4,629.8,565.6,647.2,570z"/>
					</defs>
					<clipPath id="SVGID_48_">
						<use xlink:href="#SVGID_47_"  style="overflow:visible;"/>
					</clipPath>
					<g class="st45">
						<path class="st12" d="M647.2,570l-13.6,7.8c-17.4-4.4-35-6.7-52.5-6.7c-10.1,0-20.2,0.7-30.3,2.2
							c-25.1,3.7-48.9,11.9-70.8,24.5l13.6-7.8c21.9-12.5,45.8-20.8,70.8-24.5c10.1-1.5,20.2-2.2,30.3-2.2
							C612.2,563.4,629.8,565.6,647.2,570"/>
					</g>
				</g>
				<g class="st6">
					<defs>
						<path id="SVGID_49_" class="st6" d="M493.6,590.1l-13.6,7.8c1.1-9.7,2.3-19.4,3.4-29.1L497,561
							C495.8,570.7,494.7,580.4,493.6,590.1z"/>
					</defs>
					<clipPath id="SVGID_50_">
						<use xlink:href="#SVGID_49_"  style="overflow:visible;"/>
					</clipPath>
					<g class="st46">
						<path class="st12" d="M493.6,590.1l-13.6,7.8c1.1-9.7,2.3-19.4,3.4-29.1L497,561C495.8,570.7,494.7,580.4,493.6,590.1"/>
					</g>
				</g>
				<g>
					<path class="st42" d="M594.3,539.5c2.6,0,5.3,0,8,0.1c10.1,0.3,18.7,1.2,25.2,2.1c6.6,9.4,13.1,18.9,19.7,28.3
						c-17.4-4.4-35-6.7-52.5-6.7c-10.1,0-20.2,0.7-30.3,2.2c-25.1,3.7-48.9,11.9-70.8,24.5c1.1-9.7,2.3-19.4,3.4-29.1
						c7.1-3.4,16.1-7.1,26.7-10.6c9.6-3.1,21.9-6.4,36.4-8.5C565.7,541.1,578,539.5,594.3,539.5z"/>
				</g>
			</g>
			<g class="st6">
				<g>
					<polygon class="st19" points="785.6,874.1 772,881.9 648.8,805.2 662.4,797.4 					"/>
				</g>
				<g class="st6">
					<defs>
						<path id="SVGID_51_" class="st6" d="M662.4,797.4l-13.6,7.8c-2.8-10.9-5.6-21.7-8.4-32.6l13.6-7.8
							C656.8,775.6,659.6,786.5,662.4,797.4z"/>
					</defs>
					<clipPath id="SVGID_52_">
						<use xlink:href="#SVGID_51_"  style="overflow:visible;"/>
					</clipPath>
					<g class="st47">
						<path class="st12" d="M662.4,797.4l-13.6,7.8c-2.8-10.9-5.6-21.7-8.4-32.6l13.6-7.8C656.8,775.6,659.6,786.5,662.4,797.4"/>
					</g>
				</g>
				<g>
					<path class="st42" d="M654,764.8l143,89.1l-11.4,20.3l-123.1-76.7C659.6,786.5,656.8,775.6,654,764.8z"/>
				</g>
				<g>
					<polygon class="st19" points="655,782.6 641.4,790.4 627.2,770.8 640.8,763 					"/>
				</g>
				<g>
					<polygon class="st19" points="631.3,770.1 617.7,777.9 627.2,770.8 640.8,763 					"/>
				</g>
				<g class="st6">
					<defs>
						<path id="SVGID_53_" class="st6" d="M631.3,770.1l-13.6,7.8c-2-7.8-4.1-15.5-6.1-23.3c-6.3-24-12.5-48-18.8-71.9l13.6-7.8
							c6.3,24,12.5,48,18.8,71.9C627.2,754.5,629.3,762.3,631.3,770.1z"/>
					</defs>
					<clipPath id="SVGID_54_">
						<use xlink:href="#SVGID_53_"  style="overflow:visible;"/>
					</clipPath>
					<g class="st48">
						<path class="st12" d="M631.3,770.1l-13.6,7.8c-2-7.8-4.1-15.5-6.1-23.3c-6.3-24-12.5-48-18.8-71.9l13.6-7.8
							c6.3,24,12.5,48,18.8,71.9C627.2,754.5,629.3,762.3,631.3,770.1"/>
					</g>
				</g>
				<g>
					<polygon class="st19" points="637.9,795.3 624.3,803.1 641.4,790.4 655,782.6 					"/>
				</g>
				<g>
					<polygon class="st19" points="625.5,774.4 611.9,782.2 617.7,777.9 631.3,770.1 					"/>
				</g>
				<g class="st6">
					<defs>
						<path id="SVGID_55_" class="st6" d="M654.2,857.7l-13.6,7.8c-5.4-20.8-10.9-41.6-16.3-62.5l13.6-7.8
							C643.3,816.1,648.7,836.9,654.2,857.7z"/>
					</defs>
					<clipPath id="SVGID_56_">
						<use xlink:href="#SVGID_55_"  style="overflow:visible;"/>
					</clipPath>
					<g class="st49">
						<path class="st12" d="M654.2,857.7l-13.6,7.8c-5.4-20.8-10.9-41.6-16.3-62.5l13.6-7.8C643.3,816.1,648.7,836.9,654.2,857.7"/>
					</g>
				</g>
				<g>
					<polygon class="st19" points="676.7,852.7 663.1,860.5 640.6,865.6 654.2,857.7 					"/>
				</g>
				<g>
					<path class="st42" d="M606.4,674.8c10,7.2,20,14.3,30,21.5c5.9,22.8,11.8,45.6,17.6,68.4c2.8,10.9,5.6,21.7,8.4,32.6
						c4.7,18.4,9.5,36.8,14.2,55.3l-22.5,5.1c-5.4-20.8-10.9-41.6-16.3-62.5l17.1-12.7L640.8,763l-9.5,7.1c-2-7.8-4.1-15.5-6.1-23.3
						C618.9,722.8,612.7,698.8,606.4,674.8z"/>
				</g>
				<g class="st6">
					<defs>
						<path id="SVGID_57_" class="st6" d="M463.4,674c3.5-2,6.5-3.9,9-5.6c4-2.3,8-4.6,12-6.9l1.6-0.9c-2.6,1.7-5.6,3.7-9,5.6
							C472.9,668.5,467.5,671.6,463.4,674z"/>
					</defs>
					<clipPath id="SVGID_58_">
						<use xlink:href="#SVGID_57_"  style="overflow:visible;"/>
					</clipPath>
					<g class="st50">
						<path class="st12" d="M477,666.1l-13.6,7.8c3.5-2,6.5-3.9,9-5.6l13.6-7.8C483.5,662.2,480.5,664.2,477,666.1"/>
					</g>
				</g>
				<g class="st6">
					<defs>
						<path id="SVGID_59_" class="st6" d="M486.1,660.5l-13.6,7.8c-15.5-9.8-31.1-19.7-46.6-29.5l13.6-7.8
							C455,640.8,470.5,650.7,486.1,660.5z"/>
					</defs>
					<clipPath id="SVGID_60_">
						<use xlink:href="#SVGID_59_"  style="overflow:visible;"/>
					</clipPath>
					<g class="st51">
						<path class="st12" d="M486.1,660.5l-13.6,7.8c-15.5-9.8-31.1-19.7-46.6-29.5l13.6-7.8C455,640.8,470.5,650.7,486.1,660.5"/>
					</g>
				</g>
				<g class="st6">
					<defs>
						<path id="SVGID_61_" class="st6" d="M477,666.1l-13.6,7.8c-4.1,2.3-8.7,4.7-13.9,7c-13.7,6-31.3,11.2-52.1,11.6
							c-2.2,0-4.6,0.1-7.2,0.1c-16.4,0-38.7-1.8-60.3-17.5c-6.3-4.6-34.3-24.9-37.7-60.6c-1.4-14.6,1.8-27.1,5.6-36.2
							c1.3-3.2,3.5-5.6,6.2-7.1l13.6-7.8c-2.7,1.5-4.9,4-6.2,7.1c-3.8,9.1-7,21.6-5.6,36.2c3.4,35.7,31.4,56,37.7,60.6
							c21.6,15.7,43.9,17.5,60.3,17.5c2.5,0,4.9,0,7.2-0.1c20.8-0.4,38.4-5.5,52.1-11.6C468.3,670.9,473,668.5,477,666.1z"/>
					</defs>
					<clipPath id="SVGID_62_">
						<use xlink:href="#SVGID_61_"  style="overflow:visible;"/>
					</clipPath>
					<g class="st52">
						<path class="st12" d="M477,666.1l-13.6,7.8c-4.1,2.3-8.7,4.7-13.9,7c-13.7,6-31.3,11.2-52.1,11.6c-2.2,0-4.6,0.1-7.2,0.1
							c-16.4,0-38.7-1.8-60.3-17.5c-6.3-4.6-34.3-24.9-37.7-60.6c-1.4-14.6,1.8-27.1,5.6-36.2c1.3-3.2,3.5-5.6,6.2-7.1l13.6-7.8
							c-2.7,1.5-4.9,4-6.2,7.1c-3.8,9.1-7,21.6-5.6,36.2c3.4,35.7,31.4,56,37.7,60.6c21.6,15.7,43.9,17.5,60.3,17.5
							c2.5,0,4.9,0,7.2-0.1c20.8-0.4,38.4-5.5,52.1-11.6C468.3,670.9,473,668.5,477,666.1"/>
					</g>
				</g>
				<g>
					<polygon class="st19" points="625.5,774.4 611.9,782.2 449.5,681 463.1,673.2 					"/>
				</g>
				<g>
					<path class="st42" d="M439.4,631l185.8,115.8c2,7.8,4.1,15.5,6.1,23.3l-5.8,4.3L463.1,673.2c9.6-4.2,17.4-8.9,22.9-12.7
						C470.5,650.7,455,640.8,439.4,631z"/>
				</g>
				<g>
					<polygon class="st42" points="640.8,763 655,782.6 637.9,795.3 564.9,849.5 550.7,829.9 625.5,774.4 631.3,770.1 					"/>
				</g>
				<g>
					<polygon class="st19" points="550.7,829.9 537.1,837.7 611.9,782.2 625.5,774.4 					"/>
				</g>
				<g>
					<polygon class="st19" points="564.9,849.5 551.3,857.3 537.1,837.7 550.7,829.9 					"/>
				</g>
				<g>
					<path class="st42" d="M325.1,561.5c2.8,0,5.7,0.8,8.3,2.5c35.3,22.4,70.7,44.7,106,67.1c15.5,9.8,31.1,19.7,46.6,29.5
						c-5.6,3.8-13.3,8.4-22.9,12.7c-13.7,6-31.3,11.2-52.1,11.6c-2.2,0-4.6,0.1-7.2,0.1c-16.4,0-38.7-1.8-60.3-17.5
						c-6.3-4.6-34.3-24.9-37.7-60.6c-1.4-14.6,1.8-27.1,5.6-36.2C313.9,564.8,319.3,561.5,325.1,561.5z"/>
				</g>
			</g>
		</g>
	</g>
	<g>
		<g class="st6">
			<g>
				<polygon class="st7" points="1244.3,371.2 1254.6,381.7 1234.3,394.8 1224,384.3 				"/>
			</g>
			<g class="st6">
				<defs>
					<path id="SVGID_63_" class="st6" d="M1224.6,406.1l10.3,10.5c-2.6,7-5.2,14-7.8,21l-10.3-10.5
						C1219.4,420,1222,413.1,1224.6,406.1z"/>
				</defs>
				<clipPath id="SVGID_64_">
					<use xlink:href="#SVGID_63_"  style="overflow:visible;"/>
				</clipPath>
				<g class="st53">
					<path class="st54" d="M1224.6,406.1l10.3,10.5c-2.6,7-5.2,14-7.8,21l-10.3-10.5C1219.4,420,1222,413.1,1224.6,406.1"/>
				</g>
			</g>
			<g>
				<polygon class="st10" points="1224,384.3 1234.3,394.8 1251.7,422.6 1241.4,412.1 				"/>
			</g>
			<g class="st6">
				<defs>
					<path id="SVGID_65_" class="st6" d="M1241.4,412.1l10.3,10.5c-5.6-2-11.2-4-16.8-6l-10.3-10.5
						C1230.2,408.1,1235.8,410.1,1241.4,412.1z"/>
				</defs>
				<clipPath id="SVGID_66_">
					<use xlink:href="#SVGID_65_"  style="overflow:visible;"/>
				</clipPath>
				<g class="st55">
					<path class="st54" d="M1241.4,412.1l10.3,10.5c-5.6-2-11.2-4-16.8-6l-10.3-10.5C1230.2,408.1,1235.8,410.1,1241.4,412.1"/>
				</g>
			</g>
			<g class="st6">
				<defs>
					<path id="SVGID_67_" class="st6" d="M1244.3,371.2l10.3,10.5c5.9,9.5,11.9,19,17.8,28.5c8.8,14,17.5,28,26.3,42
						c8.9,14.2,17.8,28.4,26.7,42.6c26.2,41.8,52.4,83.6,78.6,125.5l-10.3-10.5c-26.2-41.8-52.4-83.6-78.6-125.5
						c-8.9-14.2-17.8-28.4-26.7-42.6c-8.8-14-17.5-28-26.3-42C1256.2,390.2,1250.2,380.7,1244.3,371.2z"/>
				</defs>
				<clipPath id="SVGID_68_">
					<use xlink:href="#SVGID_67_"  style="overflow:visible;"/>
				</clipPath>
				<g class="st56">
					<path class="st54" d="M1244.3,371.2l10.3,10.5c5.9,9.5,11.9,19,17.8,28.5c8.8,14,17.5,28,26.3,42c8.9,14.2,17.8,28.4,26.7,42.6
						c26.2,41.8,52.4,83.6,78.6,125.5l-10.3-10.5c-26.2-41.8-52.4-83.6-78.6-125.5c-8.9-14.2-17.8-28.4-26.7-42.6
						c-8.8-14-17.5-28-26.3-42C1256.2,390.2,1250.2,380.7,1244.3,371.2"/>
				</g>
			</g>
			<g class="st6">
				<defs>
					<path id="SVGID_69_" class="st6" d="M1272.5,394.4c0,5.3,0,10.6-0.1,15.9l-10.3-10.5c0-5.3,0-10.6,0.1-15.9
						C1265.3,387,1269.4,391.2,1272.5,394.4z"/>
				</defs>
				<clipPath id="SVGID_70_">
					<use xlink:href="#SVGID_69_"  style="overflow:visible;"/>
				</clipPath>
				<g class="st57">
					<path class="st54" d="M1262.2,383.9l10.3,10.5c0,5.3,0,10.6-0.1,15.9l-10.3-10.5C1262.1,394.4,1262.1,389.1,1262.2,383.9"/>
				</g>
			</g>
			<g class="st6">
				<defs>
					<path id="SVGID_71_" class="st6" d="M1283,386.3l10.3,10.5c-6.9-0.8-13.9-1.6-20.8-2.4l-10.3-10.5
						C1269.1,384.7,1276.1,385.5,1283,386.3z"/>
				</defs>
				<clipPath id="SVGID_72_">
					<use xlink:href="#SVGID_71_"  style="overflow:visible;"/>
				</clipPath>
				<g class="st58">
					<path class="st54" d="M1283,386.3l10.3,10.5c-6.9-0.8-13.9-1.6-20.8-2.4l-10.3-10.5C1269.1,384.7,1276.1,385.5,1283,386.3"/>
				</g>
			</g>
			<g>
				<path class="st59" d="M1201.1,321.4c27.3,21.7,54.6,43.3,81.9,64.9c-6.9-0.8-13.9-1.6-20.8-2.4c0,5.3,0,10.6-0.1,15.9
					c-5.9-9.5-11.9-19-17.8-28.5l-20.3,13.1l17.4,27.8c-5.6-2-11.2-4-16.8-6c-2.6,7-5.2,14-7.8,21
					C1211.6,391.8,1206.3,356.5,1201.1,321.4z"/>
			</g>
			<g>
				<polygon class="st10" points="1267.9,454.3 1278.3,464.8 1305,507.4 1294.6,496.9 				"/>
			</g>
			<g>
				<polygon class="st18" points="1032.1,811.1 1042.4,821.6 1042.8,845.4 1032.5,834.9 				"/>
			</g>
			<g>
				<polygon class="st54" points="1040.7,834.5 1051,845 1042.8,845.4 1032.5,834.9 				"/>
			</g>
			<g class="st6">
				<defs>
					<path id="SVGID_73_" class="st6" d="M1040.7,834.5L1051,845c-10.9,6.6-24.7,11.9-42.6,16l-10.3-10.5
						C1016,846.4,1029.8,841.1,1040.7,834.5z"/>
				</defs>
				<clipPath id="SVGID_74_">
					<use xlink:href="#SVGID_73_"  style="overflow:visible;"/>
				</clipPath>
				<g class="st60">
					<path class="st54" d="M1040.7,834.5L1051,845c-10.9,6.6-24.7,11.9-42.6,16l-10.3-10.5C1016,846.4,1029.8,841.1,1040.7,834.5"/>
				</g>
			</g>
			<g>
				<path class="st59" d="M1179.9,507.8c21.8-19.6,38.7-23.9,88-53.5l26.7,42.6c-216,148.7-189.3,254.7-227.7,312.6
					c-8.8,8.3-17.5,16.7-26.3,25c-10.9,6.6-24.7,11.9-42.6,16C1097,748.5,1029.2,631.2,1179.9,507.8z"/>
			</g>
			<g class="st6">
				<defs>
					<path id="SVGID_75_" class="st6" d="M1294.6,496.9l10.3,10.5c-216,148.7-189.3,254.7-227.7,312.6l-10.3-10.5
						C1105.3,751.6,1078.7,645.6,1294.6,496.9z"/>
				</defs>
				<clipPath id="SVGID_76_">
					<use xlink:href="#SVGID_75_"  style="overflow:visible;"/>
				</clipPath>
				<g class="st61">
					<path class="st54" d="M1294.6,496.9l10.3,10.5c-22.4,15.4-42.2,30.4-59.7,44.9l-10.3-10.5
						C1252.5,527.3,1272.2,512.3,1294.6,496.9"/>
					<path class="st54" d="M1234.9,541.8l10.3,10.5c-25.8,21.4-46.7,41.7-63.8,61.1l-10.3-10.5
						C1188.2,583.5,1209.1,563.1,1234.9,541.8"/>
					<path class="st54" d="M1171.1,602.8l10.3,10.5c-12.7,14.4-23.3,28.2-32.2,41.4l-10.3-10.5
						C1147.8,631,1158.4,617.2,1171.1,602.8"/>
					<path class="st54" d="M1138.9,644.3l10.3,10.5c-8.4,12.5-15.4,24.5-21.2,36l-10.3-10.5C1123.5,668.8,1130.5,656.8,1138.9,644.3
						"/>
					<path class="st54" d="M1117.7,680.2l10.3,10.5c-7.2,14.1-12.7,27.4-17.2,39.9l-10.3-10.5C1105,707.6,1110.5,694.3,1117.7,680.2
						"/>
					<path class="st54" d="M1100.4,720.1l10.3,10.5c-8.5,23.3-13.6,43.8-20,61.4l-10.3-10.5C1086.8,763.9,1092,743.4,1100.4,720.1"
						/>
					<path class="st54" d="M1080.4,781.6l10.3,10.5c-2.3,6.3-4.8,12.3-7.6,17.9l-10.3-10.5C1075.6,793.9,1078.1,787.9,1080.4,781.6"
						/>
					<path class="st54" d="M1072.8,799.4l10.3,10.5c-1.8,3.5-3.7,6.8-5.8,10l-10.3-10.5C1069.1,806.3,1071,802.9,1072.8,799.4"/>
				</g>
			</g>
			<g>
				<path class="st59" d="M1067,809.5l0.2,0c-1.6,2.5-3.4,5.2-5.7,7.9c-7.1,8.5-14.9,13.9-20.7,17.2h-0.1l-8.2,0.4
					c0.4-6.9,0.7-13.7,1.1-20.6C1044.7,812.7,1055.8,811.1,1067,809.5z"/>
				<path class="st59" d="M1428.9,792.5c-1.4,2.6-2.9,5.3-4.3,7.9c-0.4,5.4-0.7,10.8-1.1,16.2l-290.8,13.7
					c5.2-8.2,10.3-16.4,15.5-24.5L1428.9,792.5z"/>
			</g>
			<g class="st6">
				<defs>
					<path id="SVGID_77_" class="st6" d="M1569.7,413.7l10.3,10.5c-3.2-0.1-6.4-0.1-9.6-0.1c-87.1,0-175.8,30.7-245,70.8l-10.3-10.5
						c69.2-40.1,157.9-70.8,245-70.8C1563.3,413.5,1566.5,413.6,1569.7,413.7z"/>
				</defs>
				<clipPath id="SVGID_78_">
					<use xlink:href="#SVGID_77_"  style="overflow:visible;"/>
				</clipPath>
				<g class="st62">
					<path class="st54" d="M1569.7,413.7l10.3,10.5c-3.2-0.1-6.4-0.1-9.6-0.1c-87.1,0-175.8,30.7-245,70.8l-10.3-10.5
						c69.2-40.1,157.9-70.8,245-70.8C1563.3,413.5,1566.5,413.6,1569.7,413.7"/>
				</g>
			</g>
			<g class="st6">
				<defs>
					<path id="SVGID_79_" class="st6" d="M1393.6,609.7l10.3,10.5c-2.9,10.4-5.7,20.8-8.6,31.2l-10.3-10.5
						C1387.9,630.5,1390.8,620.1,1393.6,609.7z"/>
				</defs>
				<clipPath id="SVGID_80_">
					<use xlink:href="#SVGID_79_"  style="overflow:visible;"/>
				</clipPath>
				<g class="st63">
					<path class="st54" d="M1393.6,609.7l10.3,10.5c-2.9,10.4-5.7,20.8-8.6,31.2l-10.3-10.5C1387.9,630.5,1390.8,620.1,1393.6,609.7
						"/>
				</g>
			</g>
			<g>
				<path class="st59" d="M1244.3,371.2c5.9,9.5,11.9,19,17.8,28.5c2.5,10.1,4.9,20.2,7.4,30.3c-9.4-6-18.7-11.9-28.1-17.9
					l-17.4-27.8L1244.3,371.2z"/>
				<path class="st59" d="M1288.4,441.7c9,14.3,18.1,28.7,27.1,43c-7,4.1-13.9,8.2-20.9,12.3c-8.9-14.2-17.8-28.4-26.7-42.6
					l-0.2-0.3c3.4-2.1,6.8-4.2,10.3-6.3C1281.5,445.7,1285,443.7,1288.4,441.7z"/>
				<path class="st59" d="M1393.6,609.7c-2.9,10.4-5.7,20.8-8.6,31.2l-49.3-78.5c2.7-10.7,5.4-21.5,8.1-32.2
					C1360.4,556.7,1377,583.2,1393.6,609.7z"/>
			</g>
			<g class="st6">
				<defs>
					<path id="SVGID_81_" class="st6" d="M1664.8,426.1l10.3,10.5c-1.2,0-2.4,0.1-3.6,0.1c-14.8,0-29.4-3.1-44.2-6.3
						c-14.8-3.1-29.7-6.3-44.8-6.3c-0.8,0-1.6,0-2.4,0l-10.3-10.5c0.8,0,1.6,0,2.4,0c15.2,0,30,3.1,44.8,6.3
						c14.8,3.1,29.4,6.3,44.2,6.3C1662.3,426.1,1663.5,426.1,1664.8,426.1z"/>
				</defs>
				<clipPath id="SVGID_82_">
					<use xlink:href="#SVGID_81_"  style="overflow:visible;"/>
				</clipPath>
				<g class="st64">
					<path class="st54" d="M1664.8,426.1l10.3,10.5c-1.2,0-2.4,0.1-3.6,0.1c-14.8,0-29.4-3.1-44.2-6.3c-14.8-3.1-29.7-6.3-44.8-6.3
						c-0.8,0-1.6,0-2.4,0l-10.3-10.5c0.8,0,1.6,0,2.4,0c15.2,0,30,3.1,44.8,6.3c14.8,3.1,29.4,6.3,44.2,6.3
						C1662.3,426.1,1663.5,426.1,1664.8,426.1"/>
				</g>
			</g>
			<g>
				<polygon class="st29" points="1674.5,403.9 1684.8,414.4 1675.1,436.6 1664.8,426.1 				"/>
			</g>
			<g>
				<polygon class="st54" points="1696.3,412.9 1706.6,423.4 1684.8,414.4 1674.5,403.9 				"/>
			</g>
			<g>
				<polygon class="st29" points="1696.3,412.9 1706.6,423.4 1703.4,430.6 1693.1,420.1 				"/>
			</g>
			<g class="st6">
				<defs>
					<path id="SVGID_83_" class="st6" d="M1748.9,393.4c-15.5,19.8-30.6,31.2-45.5,37.3l-10.3-10.5c14.9-6.1,30-17.5,45.5-37.3
						C1741.7,386,1745.8,390.2,1748.9,393.4z"/>
				</defs>
				<clipPath id="SVGID_84_">
					<use xlink:href="#SVGID_83_"  style="overflow:visible;"/>
				</clipPath>
				<g class="st65">
					<path class="st54" d="M1738.6,382.9l10.3,10.5c-2.2,2.9-4.5,5.5-6.7,8l-10.3-10.5C1734.1,388.4,1736.4,385.7,1738.6,382.9"/>
					<path class="st54" d="M1731.9,390.9l10.3,10.5c-5,5.7-10,10.6-15,14.7l-10.3-10.5C1721.9,401.5,1726.9,396.6,1731.9,390.9"/>
					<path class="st54" d="M1716.9,405.6l10.3,10.5c-8,6.6-15.9,11.3-23.8,14.5l-10.3-10.5C1701,416.9,1708.9,412.2,1716.9,405.6"/>
				</g>
			</g>
			<g>
				<path class="st59" d="M1676.8,393.1c20.1,0,40.5-2.8,61.7-10.2c-15.5,19.8-30.6,31.2-45.5,37.3l3.2-7.2l-21.8-9l-9.7,22.1
					c-1.2,0-2.4,0.1-3.6,0.1c-14.8,0-29.4-3.1-44.2-6.3c-14.8-3.1-29.7-6.3-44.8-6.3c-0.8,0-1.6,0-2.4,0c-3.2-0.1-6.4-0.1-9.6-0.1
					c-87.1,0-175.8,30.7-245,70.8c-8.9-14.2-17.8-28.4-26.7-42.6c4.6-2.9,9.4-5.9,14.4-9.2c68.5-53.2,125.9-68.7,177.6-68.7
					c35.6,0,68.6,7.3,100.7,14.6C1613.3,385.8,1644.6,393.1,1676.8,393.1z"/>
			</g>
			<g class="st6">
				<defs>
					<path id="SVGID_85_" class="st6" d="M1439.2,803c-1.4,2.6-2.9,5.3-4.3,7.9l-10.3-10.5c1.4-2.6,2.9-5.3,4.3-7.9
						C1432,795.6,1436.1,799.8,1439.2,803z"/>
				</defs>
				<clipPath id="SVGID_86_">
					<use xlink:href="#SVGID_85_"  style="overflow:visible;"/>
				</clipPath>
				<g class="st66">
					<path class="st24" d="M1428.9,792.5l10.3,10.5c-1.4,2.6-2.9,5.3-4.3,7.9l-10.3-10.5C1426,797.8,1427.5,795.1,1428.9,792.5"/>
				</g>
			</g>
			<g class="st6">
				<defs>
					<path id="SVGID_87_" class="st6" d="M1434.9,810.9c-0.4,5.4-0.7,10.8-1.1,16.1l-10.3-10.5c0.4-5.4,0.7-10.8,1.1-16.1
						C1427.7,803.6,1431.8,807.8,1434.9,810.9z"/>
				</defs>
				<clipPath id="SVGID_88_">
					<use xlink:href="#SVGID_87_"  style="overflow:visible;"/>
				</clipPath>
				<g class="st67">
					<path class="st33" d="M1424.6,800.4l10.3,10.5c-0.4,5.4-0.7,10.8-1.1,16.1l-10.3-10.5C1423.9,811.2,1424.2,805.8,1424.6,800.4"
						/>
				</g>
			</g>
			<g>
				<polygon class="st54" points="1423.5,816.6 1433.8,827 1051,845 1040.7,834.5 				"/>
			</g>
			<g class="st6">
				<defs>
					<path id="SVGID_89_" class="st6" d="M1555.3,739.6c-4.6,0.6-9.2,1.1-13.7,1.7l-10.3-10.5c4.6-0.6,9.2-1.1,13.7-1.7
						C1548,732.3,1552.2,736.5,1555.3,739.6z"/>
				</defs>
				<clipPath id="SVGID_90_">
					<use xlink:href="#SVGID_89_"  style="overflow:visible;"/>
				</clipPath>
				<g class="st68">
					<path class="st54" d="M1544.9,729.1l10.3,10.5c-4.6,0.6-9.2,1.1-13.7,1.7l-10.3-10.5C1535.8,730.2,1540.4,729.7,1544.9,729.1"
						/>
				</g>
			</g>
			<g class="st6">
				<defs>
					<path id="SVGID_91_" class="st6" d="M1544.9,729.1l10.3,10.5c2.5,4,5,8,7.4,12.1c14.9,24.2,29.8,48.4,44.7,72.6l-10.3-10.5
						c-14.9-24.2-29.8-48.4-44.7-72.6C1549.9,737.2,1547.4,733.1,1544.9,729.1z"/>
				</defs>
				<clipPath id="SVGID_92_">
					<use xlink:href="#SVGID_91_"  style="overflow:visible;"/>
				</clipPath>
				<g class="st69">
					<path class="st54" d="M1544.9,729.1l10.3,10.5c2.5,4,5,8,7.4,12.1c14.9,24.2,29.8,48.4,44.7,72.6l-10.3-10.5
						c-14.9-24.2-29.8-48.4-44.7-72.6C1549.9,737.2,1547.4,733.1,1544.9,729.1"/>
				</g>
			</g>
			<g>
				<polygon class="st54" points="1693.1,420.1 1703.4,430.6 1562.7,751.7 1552.4,741.2 				"/>
			</g>
			<g>
				<path class="st59" d="M1633,498.6c12.5-8.9,25-17.8,37.5-26.7l-118.1,269.4c-2.5-4-5-8-7.4-12.1c-4.6,0.6-9.2,1.1-13.7,1.7
					L1633,498.6z"/>
				<path class="st59" d="M1696.3,412.9l-3.2,7.2l-0.3,0.7c-5.7,2.5-12.8,4.8-21.1,5.6c-2.5,0.2-4.9,0.3-7.2,0.3l0.3-0.7l9.7-22.1
					L1696.3,412.9z"/>
			</g>
			<g class="st6">
				<defs>
					<path id="SVGID_93_" class="st6" d="M1447.1,759l10.3,10.5c14.1,23,28.2,46,42.2,69l-10.3-10.5
						C1475.3,805,1461.2,782,1447.1,759z"/>
				</defs>
				<clipPath id="SVGID_94_">
					<use xlink:href="#SVGID_93_"  style="overflow:visible;"/>
				</clipPath>
				<g class="st70">
					<path class="st54" d="M1447.1,759l10.3,10.5c14.1,23,28.2,46,42.2,69l-10.3-10.5C1475.3,805,1461.2,782,1447.1,759"/>
				</g>
			</g>
			<g class="st6">
				<defs>
					<path id="SVGID_95_" class="st6" d="M1489.4,828l10.3,10.5c-22.3,2-44.7,4.1-67.1,6.1l-10.3-10.5
						C1444.7,832.1,1467.1,830,1489.4,828z"/>
				</defs>
				<clipPath id="SVGID_96_">
					<use xlink:href="#SVGID_95_"  style="overflow:visible;"/>
				</clipPath>
				<g class="st71">
					<path class="st54" d="M1489.4,828l10.3,10.5c-22.3,2-44.7,4.1-67.1,6.1l-10.3-10.5C1444.7,832.1,1467.1,830,1489.4,828"/>
				</g>
			</g>
			<g>
				<path class="st59" d="M1447.1,759c14.1,23,28.2,46,42.2,69c-22.3,2-44.7,4.1-67.1,6.1c0.4-5.9,0.8-11.7,1.2-17.6
					c0.4-5.4,0.7-10.8,1.1-16.1c1.4-2.6,2.9-5.3,4.3-7.9C1435,781.3,1441.1,770.2,1447.1,759z"/>
			</g>
			<g class="st6">
				<defs>
					<path id="SVGID_97_" class="st6" d="M1597,813.8l10.3,10.5c-19,4.4-38.1,8.9-57.2,13.4l-10.3-10.5
						C1558.9,822.7,1578,818.2,1597,813.8z"/>
				</defs>
				<clipPath id="SVGID_98_">
					<use xlink:href="#SVGID_97_"  style="overflow:visible;"/>
				</clipPath>
				<g class="st72">
					<path class="st54" d="M1597,813.8l10.3,10.5c-19,4.4-38.1,8.9-57.2,13.4l-10.3-10.5C1558.9,822.7,1578,818.2,1597,813.8"/>
				</g>
			</g>
			<g>
				<path class="st59" d="M1544.9,729.1c2.5,4,5,8,7.4,12.1c14.9,24.2,29.8,48.4,44.7,72.6c-19,4.4-38.1,8.9-57.2,13.4
					c-17.7-30.4-35.3-60.7-53-91.1c14.8-1.8,29.6-3.6,44.4-5.3C1535.8,730.2,1540.4,729.7,1544.9,729.1z"/>
			</g>
		</g>
		<g class="st6">
			<g class="st6">
				<defs>
					<path id="SVGID_99_" class="st6" d="M1414.3,642.8l10.3,10.5c8.3,13.3,16.7,26.6,25,40l-10.3-10.5
						C1431,669.4,1422.7,656.1,1414.3,642.8z"/>
				</defs>
				<clipPath id="SVGID_100_">
					<use xlink:href="#SVGID_99_"  style="overflow:visible;"/>
				</clipPath>
				<g class="st73">
					<path class="st54" d="M1414.3,642.8l10.3,10.5c8.3,13.3,16.7,26.6,25,40l-10.3-10.5C1431,669.4,1422.7,656.1,1414.3,642.8"/>
				</g>
			</g>
			<g class="st6">
				<defs>
					<path id="SVGID_101_" class="st6" d="M1439.4,682.8l10.3,10.5c-2.9,10.2-5.8,20.5-8.7,30.7l-10.3-10.5
						C1433.5,703.3,1436.5,693,1439.4,682.8z"/>
				</defs>
				<clipPath id="SVGID_102_">
					<use xlink:href="#SVGID_101_"  style="overflow:visible;"/>
				</clipPath>
				<g class="st74">
					<path class="st54" d="M1439.4,682.8l10.3,10.5c-2.9,10.2-5.8,20.5-8.7,30.7l-10.3-10.5C1433.5,703.3,1436.5,693,1439.4,682.8"
						/>
				</g>
			</g>
			<g>
				<path class="st59" d="M1414.3,642.8c8.3,13.3,16.7,26.6,25,40c-2.9,10.2-5.8,20.5-8.7,30.7l-24.9-39.7l0.1-0.3
					C1408.1,663.2,1411.4,653,1414.3,642.8z"/>
			</g>
		</g>
	</g>
	<g>
		<g class="st6">
			<g class="st6">
				<defs>
					<path id="SVGID_103_" class="st6" d="M832.5,615.8l-16.5,9.5c-5.3,3-11.5,4.5-18.2,4.5c-17.6,0-38.6-10.1-55.5-28.5
						c-25.9-28.2-32.2-65.2-14.1-82.6c1.8-1.7,3.8-3.2,5.9-4.4l16.5-9.5c-2.1,1.2-4.1,2.7-5.9,4.4c-18.1,17.4-11.8,54.4,14.1,82.6
						c16.9,18.4,37.9,28.5,55.5,28.5C821,620.3,827.2,618.9,832.5,615.8z"/>
				</defs>
				<clipPath id="SVGID_104_">
					<use xlink:href="#SVGID_103_"  style="overflow:visible;"/>
				</clipPath>
			</g>
			<g>
				<path class="st59" d="M838.4,611.4c-6.3,6.1-14.7,9-24.1,9c-17.6,0-38.6-10.1-55.5-28.5c-25.9-28.2-32.2-65.2-14.1-82.6
					c6.3-6.1,14.7-8.9,24.1-8.9c12.3,0,26.2,4.9,39.3,14.2c5.6,4,11.1,8.8,16.2,14.4c14.5,15.8,22.9,34.5,24.2,50.8
					C849.6,592.3,846.3,603.7,838.4,611.4z"/>
			</g>
		</g>
		<g class="st6">
			<g class="st6">
				<defs>
					<path id="SVGID_105_" class="st6" d="M610.4,518.7l-16.5,9.5c-9.2-1.4-18.5-2.1-27.8-2.1c-7.6,0-15.1,0.5-22.6,1.4
						c-18.2,2.3-35.9,7.3-52.4,15l16.5-9.5c16.6-7.7,34.2-12.7,52.4-15c7.5-0.9,15.1-1.4,22.6-1.4
						C591.9,516.6,601.1,517.3,610.4,518.7z"/>
				</defs>
				<clipPath id="SVGID_106_">
					<use xlink:href="#SVGID_105_"  style="overflow:visible;"/>
				</clipPath>
				<g class="st75">
					<path class="st59" d="M610.4,518.7l-16.5,9.5c-9.2-1.4-18.5-2.1-27.8-2.1c-7.6,0-15.1,0.5-22.6,1.4c-18.2,2.3-35.9,7.3-52.4,15
						l16.5-9.5c16.6-7.7,34.2-12.7,52.4-15c7.5-0.9,15.1-1.4,22.6-1.4C591.9,516.6,601.1,517.3,610.4,518.7"/>
				</g>
			</g>
			<g class="st6">
				<defs>
					<path id="SVGID_107_" class="st6" d="M507.5,533l-16.5,9.5c2.1-9.5,4.2-19,6.3-28.4l16.5-9.5C511.7,514,509.6,523.5,507.5,533z
						"/>
				</defs>
				<clipPath id="SVGID_108_">
					<use xlink:href="#SVGID_107_"  style="overflow:visible;"/>
				</clipPath>
				<g class="st76">
					<path class="st59" d="M507.5,533l-16.5,9.5c2.1-9.5,4.2-19,6.3-28.4l16.5-9.5C511.7,514,509.6,523.5,507.5,533"/>
				</g>
			</g>
			<g>
				<path class="st54" d="M573.6,493.3c5.1,0,10.8,0.2,16.9,0.9c6.6,8.2,13.2,16.3,19.9,24.5c-9.2-1.4-18.5-2.1-27.8-2.1
					c-7.6,0-15.1,0.5-22.6,1.4c-18.2,2.3-35.9,7.3-52.4,15c2.1-9.5,4.2-19,6.3-28.4c5.8-2.2,12.8-4.4,20.9-6.4
					c11-2.7,19.5-3.7,21.4-3.9C561,493.7,566.8,493.3,573.6,493.3z"/>
			</g>
		</g>
		<g class="st6">
			<g class="st6">
				<defs>
					<path id="SVGID_109_" class="st6" d="M648.6,569.2l-16.5,9.5c-17.4-4.4-35-6.7-52.5-6.7c-10.1,0-20.2,0.7-30.2,2.2
						c-25.1,3.7-48.9,12-70.8,24.5l16.5-9.5c21.9-12.5,45.8-20.8,70.8-24.5c10-1.5,20.1-2.2,30.2-2.2
						C613.6,562.5,631.2,564.8,648.6,569.2z"/>
				</defs>
				<clipPath id="SVGID_110_">
					<use xlink:href="#SVGID_109_"  style="overflow:visible;"/>
				</clipPath>
				<g class="st77">
					<path class="st59" d="M648.6,569.2l-16.5,9.5c-17.4-4.4-35-6.7-52.5-6.7c-10.1,0-20.2,0.7-30.2,2.2
						c-25.1,3.7-48.9,12-70.8,24.5l16.5-9.5c21.9-12.5,45.8-20.8,70.8-24.5c10-1.5,20.1-2.2,30.2-2.2
						C613.6,562.5,631.2,564.8,648.6,569.2"/>
				</g>
			</g>
			<g class="st6">
				<defs>
					<path id="SVGID_111_" class="st6" d="M495,589.3l-16.5,9.5c1.1-9.7,2.3-19.4,3.4-29.1l16.5-9.5
						C497.3,569.9,496.1,579.6,495,589.3z"/>
				</defs>
				<clipPath id="SVGID_112_">
					<use xlink:href="#SVGID_111_"  style="overflow:visible;"/>
				</clipPath>
				<g class="st78">
					<path class="st59" d="M495,589.3l-16.5,9.5c1.1-9.7,2.3-19.4,3.4-29.1l16.5-9.5C497.3,569.9,496.1,579.6,495,589.3"/>
				</g>
			</g>
			<g>
				<path class="st54" d="M595.7,538.7c2.6,0,5.3,0,8.1,0.1c10.1,0.3,18.7,1.2,25.2,2.1c6.6,9.4,13.1,18.9,19.7,28.3
					c-17.4-4.4-35-6.7-52.5-6.7c-10.1,0-20.2,0.7-30.2,2.2c-25.1,3.7-48.9,12-70.8,24.5c1.1-9.7,2.3-19.4,3.4-29.1
					c7.1-3.4,16.1-7.1,26.7-10.5c9.6-3.1,21.9-6.4,36.4-8.5C567.2,540.3,579.4,538.7,595.7,538.7z"/>
			</g>
		</g>
		<g class="st6">
			<g>
				<polygon class="st59" points="787,873.3 770.6,882.8 647.4,806 663.9,796.6 				"/>
			</g>
			<g class="st6">
				<defs>
					<path id="SVGID_113_" class="st6" d="M663.9,796.6l-16.5,9.5c-2.8-10.9-5.6-21.7-8.4-32.6l16.5-9.5
						C658.3,774.8,661.1,785.7,663.9,796.6z"/>
				</defs>
				<clipPath id="SVGID_114_">
					<use xlink:href="#SVGID_113_"  style="overflow:visible;"/>
				</clipPath>
				<g class="st79">
					<path class="st54" d="M663.9,796.6l-16.5,9.5c-2.8-10.9-5.6-21.7-8.4-32.6l16.5-9.5C658.3,774.8,661.1,785.7,663.9,796.6"/>
				</g>
			</g>
			<g>
				<path class="st54" d="M655.5,763.9l143,89.1L787,873.3l-123.2-76.7C661.1,785.7,658.3,774.8,655.5,763.9z"/>
			</g>
			<g>
				<polygon class="st54" points="656.4,781.7 639.9,791.2 625.8,771.6 642.2,762.2 				"/>
			</g>
			<g>
				<polygon class="st54" points="632.7,769.2 616.2,778.7 625.8,771.6 642.2,762.2 				"/>
			</g>
			<g class="st6">
				<defs>
					<path id="SVGID_115_" class="st6" d="M632.7,769.2l-16.5,9.5c-2-7.8-4.1-15.5-6.1-23.3c-6.3-24-12.5-48-18.8-72l16.5-9.5
						c6.3,24,12.5,48,18.8,72C628.7,753.7,630.7,761.5,632.7,769.2z"/>
				</defs>
				<clipPath id="SVGID_116_">
					<use xlink:href="#SVGID_115_"  style="overflow:visible;"/>
				</clipPath>
				<g class="st80">
					<path class="st59" d="M632.7,769.2l-16.5,9.5c-2-7.8-4.1-15.5-6.1-23.3c-6.3-24-12.5-48-18.8-72l16.5-9.5
						c6.3,24,12.5,48,18.8,72C628.7,753.7,630.7,761.5,632.7,769.2"/>
				</g>
			</g>
			<g>
				<polygon class="st54" points="639.3,794.5 622.8,803.9 639.9,791.2 656.4,781.7 				"/>
			</g>
			<g>
				<polygon class="st54" points="626.9,773.5 610.5,783 616.2,778.7 632.7,769.2 				"/>
			</g>
			<g class="st6">
				<defs>
					<path id="SVGID_117_" class="st6" d="M655.6,856.9l-16.5,9.5c-5.4-20.8-10.9-41.6-16.3-62.5l16.5-9.5
						C644.7,815.3,650.2,836.1,655.6,856.9z"/>
				</defs>
				<clipPath id="SVGID_118_">
					<use xlink:href="#SVGID_117_"  style="overflow:visible;"/>
				</clipPath>
				<g class="st81">
					<path class="st59" d="M655.6,856.9l-16.5,9.5c-5.4-20.8-10.9-41.6-16.3-62.5l16.5-9.5C644.7,815.3,650.2,836.1,655.6,856.9"/>
				</g>
			</g>
			<g>
				<polygon class="st54" points="678.1,851.8 661.6,861.3 639.2,866.4 655.6,856.9 				"/>
			</g>
			<g>
				<path class="st54" d="M645.3,724.3c-9.9-7-19.9-14.1-29.8-21.1c-2.6-9.7-5.1-19.5-7.6-29.2c10,7.2,20,14.3,30,21.5
					C640.3,705.1,642.8,714.7,645.3,724.3z"/>
				<path class="st54" d="M649,787.3l7.4-5.5l-14.2-19.6l-9.5,7.1c-2-7.8-4.1-15.5-6.1-23.3c9.6,6,19.2,12,28.8,18
					c2.8,10.9,5.6,21.7,8.4,32.6C658.9,793.5,653.9,790.4,649,787.3z"/>
				<path class="st59" d="M678.1,851.8l-22.5,5.1c-1.5-5.6-2.9-11.1-4.4-16.7c5.4,3.2,10.8,6.5,16.3,9.7c2.4-3.6,4.8-7.3,7.3-10.9
					C675.9,843.2,677,847.5,678.1,851.8z"/>
			</g>
			<g class="st6">
				<defs>
					<path id="SVGID_119_" class="st6" d="M478.4,665.3l-16.5,9.5c3.4-2,6.5-3.9,9-5.6l16.5-9.5
						C484.9,661.4,481.9,663.3,478.4,665.3z"/>
				</defs>
				<clipPath id="SVGID_120_">
					<use xlink:href="#SVGID_119_"  style="overflow:visible;"/>
				</clipPath>
				<g class="st82">
					<path class="st54" d="M478.4,665.3l-16.5,9.5c3.4-2,6.5-3.9,9-5.6l16.5-9.5C484.9,661.4,481.9,663.3,478.4,665.3"/>
				</g>
			</g>
			<g class="st6">
				<defs>
					<path id="SVGID_121_" class="st6" d="M487.5,659.7l-16.5,9.5c-15.4-9.7-30.8-19.5-46.2-29.2l16.5-9.5
						C456.7,640.2,472.1,649.9,487.5,659.7z"/>
				</defs>
				<clipPath id="SVGID_122_">
					<use xlink:href="#SVGID_121_"  style="overflow:visible;"/>
				</clipPath>
				<g class="st83">
					<path class="st54" d="M487.5,659.7l-16.5,9.5c-15.4-9.7-30.8-19.5-46.2-29.2l16.5-9.5C456.7,640.2,472.1,649.9,487.5,659.7"/>
				</g>
			</g>
			<g class="st6">
				<defs>
					<path id="SVGID_123_" class="st6" d="M478.4,665.3l-16.5,9.5c-4.1,2.3-8.7,4.7-13.9,7c-13.7,6-31.3,11.2-52.1,11.6
						c-2.3,0-4.7,0.1-7.3,0.1c-16.4,0-38.6-1.8-60.2-17.5c-6.3-4.6-34.3-24.9-37.7-60.6c-1.4-14.7,1.8-27.1,5.6-36.2
						c1.3-3.2,3.5-5.6,6.2-7.1l16.5-9.5c-2.7,1.5-4.9,4-6.2,7.1c-3.8,9.1-7,21.6-5.6,36.2c3.4,35.7,31.4,56,37.7,60.6
						c21.6,15.7,43.8,17.5,60.2,17.5c2.6,0,5,0,7.3-0.1c20.8-0.4,38.4-5.5,52.1-11.6C469.7,670.1,474.4,667.7,478.4,665.3z"/>
				</defs>
				<clipPath id="SVGID_124_">
					<use xlink:href="#SVGID_123_"  style="overflow:visible;"/>
				</clipPath>
			</g>
			<g>
				<polygon class="st59" points="626.9,773.5 610.5,783 448.1,681.8 464.5,672.3 				"/>
			</g>
			<g>
				<path class="st54" d="M441.3,630.5L626.6,746c2,7.8,4.1,15.5,6.1,23.3l-5.8,4.3L464.5,672.3c9.6-4.2,17.3-8.9,22.9-12.7
					C472.1,649.9,456.7,640.2,441.3,630.5z"/>
			</g>
			<g>
				<path class="st59" d="M588,802.5c7.5,4.5,15,8.9,22.5,13.4l-44.1,32.8l-14.2-19.6L588,802.5z"/>
				<path class="st54" d="M656.4,781.8l-7.4,5.5c-7.4-4.6-14.7-9.2-22-13.7l5.8-4.3l9.5-7.1L656.4,781.8z"/>
			</g>
			<g>
				<polygon class="st59" points="552.1,829.1 535.7,838.5 610.5,783 626.9,773.5 				"/>
			</g>
			<g>
				<polygon class="st54" points="566.3,848.6 549.9,858.1 535.7,838.5 552.1,829.1 				"/>
			</g>
			<g>
				<path class="st54" d="M487.5,659.7c-5.6,3.8-13.3,8.4-22.9,12.7c-13.7,6-31.3,11.2-52.1,11.5c-2.3,0-4.7,0.1-7.3,0.1
					c-16.4,0-38.6-1.8-60.2-17.5c-3.3-2.4-12.8-9.3-21.4-20.6c-7.6-9.9-14.6-23.3-16.2-40c-1.4-14.7,1.8-27.1,5.6-36.2
					c2.4-5.8,7.8-9.1,13.6-9.1c2.5,0,5,0.6,7.4,1.9c0.3,0.2,0.6,0.4,0.9,0.6c35.5,22.4,71,44.9,106.4,67.3
					C456.7,640.2,472.1,650,487.5,659.7z"/>
			</g>
		</g>
	</g>
	<g>
		<path class="st3" d="M1730.4,492.4c4,4.8,8.1,9.7,12.1,14.5c-6.4,0.4-12.9,0.8-19.3,1.2C1725.6,502.9,1728,497.6,1730.4,492.4z"/>
		<path class="st3" d="M1252.7,1636.4c8.1-9.7,16.1-19.3,24.2-29c-3.2,12.5-6.4,25-9.7,37.5
			C1262.4,1642,1257.6,1639.2,1252.7,1636.4z"/>
		<path class="st3" d="M915.4,1422.3c-0.4,6-0.8,12.1-1.2,18.1c5.6-4.4,11.3-8.9,16.9-13.3C925.8,1425.6,920.6,1424,915.4,1422.3z"
			/>
		<path class="st3" d="M859.7,1673.9c0-11.7,0-23.4,0-35.1c4,11.3,8.1,22.6,12.1,33.9C867.8,1673.1,863.8,1673.5,859.7,1673.9z"/>
		<path class="st3" d="M592.5,1650.9c4.8,4.4,9.7,8.9,14.5,13.3c2.8-6.4,5.6-12.9,8.5-19.3C607.8,1646.9,600.1,1648.9,592.5,1650.9z
			"/>
		<path class="st3" d="M388.1,1618.2c10.5,0.8,21,1.6,31.4,2.4c-8.5,3.6-16.9,7.3-25.4,10.9C392.1,1627.1,390.1,1622.7,388.1,1618.2
			z"/>
		<path class="st3" d="M269.6,654.5c-6.4,3.6-12.9,7.3-19.3,10.9c6.9,0.4,13.7,0.8,20.6,1.2C270.4,662.5,270,658.5,269.6,654.5z"/>
		<path class="st3" d="M310.7,409c3.6,6.9,7.3,13.7,10.9,20.6c1.2-7.7,2.4-15.3,3.6-23C320.4,407.4,315.6,408.2,310.7,409z"/>
		<path class="st3" d="M632.4,473.1c2-5.2,4-10.5,6-15.7c1.6,4.8,3.2,9.7,4.8,14.5C639.6,472.3,636,472.7,632.4,473.1z"/>
		<path class="st3" d="M931.1,470.6c-6,2.8-12.1,5.6-18.1,8.5c6.9,0.4,13.7,0.8,20.6,1.2C932.7,477.1,931.9,473.9,931.1,470.6z"/>
		<path class="st3" d="M1023,704c-6.4-6-12.9-12.1-19.3-18.1c8.5,1.6,16.9,3.2,25.4,4.8C1027,695.2,1025,699.6,1023,704z"/>
		<path class="st3" d="M1075,325.5c5.6-0.8,11.3-1.6,16.9-2.4c-4-5.6-8.1-11.3-12.1-16.9C1078.2,312.6,1076.6,319.1,1075,325.5z"/>
		<path class="st3" d="M1709.8,278.4c2,6.9,4,13.7,6,20.6c4-5.6,8.1-11.3,12.1-16.9C1721.9,280.8,1715.9,279.6,1709.8,278.4z"/>
		<path class="st3" d="M1367.6,295.3c3.6-7.3,7.3-14.5,10.9-21.8c-0.4,8.9-0.8,17.7-1.2,26.6
			C1374.1,298.5,1370.8,296.9,1367.6,295.3z"/>
	</g>
	<path class="st0" d="M1909.4,327c6.5,20.9,12.9,41.7,19.4,62.6c-288.4,936-434,1403.6-436.6,1402.8
		c-2.6-0.8,137.3-468.6,419.6-1403.1C1911,368.4,1910.2,347.7,1909.4,327z"/>
	<path class="st0" d="M99.6,429.4c-9.6,24.6-19.1,49.1-28.7,73.7c89.3,429.6,178.6,859.2,267.9,1288.8
		C255,1362.9,171.1,933.9,87.2,504.9C91.4,479.7,95.5,454.5,99.6,429.4z"/>
	<path class="st54" d="M1288.4,441.7c-3.4,1.9-6.8,3.9-10.4,6.1c-3.5,2.2-6.9,4.4-10.1,6.5c-8.8-14.1-17.7-28.2-26.5-42.2
		c3,0.9,6.1,1.9,9.2,2.9c3.7,1.3,7.4,2.6,10.9,3.9c0.2-6.4,0.5-12.8,0.7-19.2C1270.9,413.7,1279.6,427.7,1288.4,441.7z"/>
	<path class="st54" d="M1343.8,530.2c-2.7,10.7-5.4,21.5-8.1,32.2c-13.8-21.8-27.5-43.7-41.3-65.5c3.4-2.4,7.1-4.9,11.2-7.3
		c3.3-2,6.5-3.8,9.6-5.5C1324.8,499.5,1334.3,514.9,1343.8,530.2z"/>
	<path class="st54" d="M1148.2,805.7c-5.2,8.2-10.3,16.3-15.5,24.5l-91.9,4.3c5.9-3.3,13.7-8.6,20.7-17.2c2.2-2.7,4.1-5.3,5.7-7.9
		L1148.2,805.7z"/>
	<path class="st54" d="M1693.3,420.1c-7.6,17.3-15.2,34.5-22.9,51.8c-12.5,8.9-25,17.8-37.5,26.7c10.6-24.2,21.2-48.3,31.7-72.5
		c5.5-0.4,11.8-1.3,18.6-3C1686.9,422.2,1690.2,421.1,1693.3,420.1z"/>
	<path class="st54" d="M1674.8,414c-24,4.1-35-1.7-77.2-7.7c-30.2-4.3-68.4-9.5-109.1-5.1c-19.3,2.1-47.6,7.3-81.1,21.7
		c2.4-3.4,6.9-10.9,7.2-21.1c0.1-4-0.5-7.5-1.3-10.2c-1.4,3.8-4,9.6-8.3,15.9c-10.1,14.8-23.2,22.2-28.7,25.2
		c-33.6,18.5-58.6,27.3-81.3,40.2c-32.1,18.2-54,41.2-93.1,68.3c-5.1,3.5-17.3,11.8-34.8,14c-5.5,0.7-10.1,0.6-13,0.5
		c1,0.9,2.4,2,4.1,3.1c1.6,1,3.4,2,5.4,2.8c12.6,5,24.7,0.3,28.2-1.2c-33,28.3-52.6,55-64,73.4c-23.3,37.3-35.5,75.8-43.6,101.6
		c-12.2,38.4-11.3,49.6-25,68.2c-16,21.7-38,34.8-54.5,42.5c14.2,5,30.3,1.1,43-7c12.7-8.1,21.4-20.2,27.2-32.9
		c5.9-12.8,9.2-26.5,13.4-40.1c32-103.8,115.3-203.7,224.3-263.4c-0.3-0.5-0.6-1-0.9-1.5c89.1-65.8,205-94.4,314.5-77.5
		c15.2,2.3,30.4,5.5,45.8,6s31.3-2,44.4-10.2c13.1-8.2,22.8-21.4,22.2-36.8C1724.7,394.7,1703.2,409.2,1674.8,414z"/>
	<path class="st54" d="M674.8,838.9c-2.4,3.6-4.8,7.3-7.3,10.9c-5.4-3.2-10.8-6.5-16.3-9.7h0c-4-15.2-8-30.5-11.9-45.7l9.7-7.2
		c5,3.1,9.9,6.2,14.9,9.3C667.5,810.7,671.1,824.8,674.8,838.9z"/>
	<path class="st59" d="M649,787.3l-9.7,7.2l-28.8,21.4c-7.5-4.5-15-8.9-22.5-13.4l39-28.9C634.3,778.1,641.6,782.7,649,787.3z"/>
	<path class="st54" d="M655.5,763.9c-9.6-6-19.2-12-28.8-18c-3.7-14.2-7.4-28.5-11.1-42.7c9.9,7,19.9,14.1,29.8,21.1
		C648.7,737.5,652.1,750.7,655.5,763.9z"/>
	<g>
		<path class="st54" d="M848.5,579.6c-0.6,6.5-2.7,12.3-6.5,16.5c-4.1,4.6-9.5,6.7-15.5,6.7c-11.3,0-24.9-7.6-35.7-21.5
			c-16.7-21.2-20.7-49.1-9.1-62.2c4.1-4.6,9.5-6.7,15.5-6.7c3.4,0,7,0.7,10.7,2.1c5.6,4,11.1,8.8,16.2,14.4
			C838.8,544.6,847.2,563.2,848.5,579.6z"/>
	</g>
	<g>
		<path class="st59" d="M839.5,610.3c-4.4,4.5-19.4,18.4-41.7,19.5c-30.3,1.5-49.9-21.8-55.5-28.5c-16.7-19.9-32.7-58.4-14.1-82.6
			c10.7-14,28.4-17.2,36-18.2c-6.1,1.4-12.1,4.1-16.5,9.2c-15.2,17.8-2.5,55.6,17,76.3C792.2,615.4,833.7,611,839.5,610.3z"/>
	</g>
	
		<ellipse transform="matrix(0.8824 -0.4705 0.4705 0.8824 -170.4513 442.2316)" class="st59" cx="799.4" cy="562.1" rx="19.8" ry="25.4"/>
	<path class="st59" d="M388.3,656.1c-5.7,2.2-15.7,5-28.1,4.1c-18.7-1.3-31.6-10.3-36.7-14.3c-4-3.4-17.4-15.9-20.4-36.6
		c0,0-2.8-19.4,8-38.4c2.4-4.3,5-6.3,6.5-7.3c1.4-1,4.5-3,8.9-3c2.5,0,5,0.6,7.4,1.9c-3.2,5.1-11.9,20.3-9.1,39.6
		c3.7,25.5,24.7,38.9,30.6,42.7C368.4,653.3,381.2,655.4,388.3,656.1z"/>
	<g>
		<path class="st59" d="M464.3,672.4c-13.7,6-31.2,11.1-51.9,11.5c-2.3,0-4.7,0.1-7.3,0.1c-16.4,0-38.6-1.8-60.2-17.5
			c-6.3-4.6-34.3-24.9-37.7-60.6c-1.4-14.7,1.8-27.1,5.6-36.2c1.3-3.2,3.5-5.6,6.2-7.1c-4.9,1.6-15.5,6-22.7,16.6
			c-8.8,13-6.5,27.1-5.6,36.2c3.4,35.7,31.4,56,37.7,60.6c21.6,15.7,43.8,17.5,60.2,17.5c2.6,0,5,0,7.3-0.1
			c20.8-0.4,38.4-5.5,52.1-11.6c5.2-2.3,9.8-4.7,13.9-7l3.3-1.9C465,672.7,464.6,672.6,464.3,672.4z"/>
	</g>
</g>
<g id="Слой_4__x28_копия_x29_">
	<path class="st3" d="M275.9,1377.7c96.3,63.9,192.6,127.9,288.9,191.8c36.3-38.8,108.2-105.1,219.2-148.4
		c124.4-48.4,233.7-42.8,287.5-36.4c100.7,52.4,201.4,104.8,302.1,157.3c59.7-45.1,119.3-90.3,179-135.4
		c38.3-141.9,76.6-283.8,114.9-425.7c-9.3-46-18.5-91.9-27.8-137.9c-283.4,154.5-514.5,196.1-678.5,203.6
		c-99.7,4.6-190.4-2.8-310.9,39.2C471.4,1148.1,351.3,1275.5,275.9,1377.7z"/>
	<g>
		<g>
			<path class="st3" d="M1618.1,1342.1c-22.9,16.1-45.7,32.3-68.6,48.4c-27.8-3.8-56.1-7.3-84.1-10.5l-53.6-6.1v-174.2l-43.8-3.9
				c-13.6-1.2-26.9-2.8-39.8-4.4c-11.2-1.4-21.9-2.7-32.4-3.7v1.4l-191.4-16.9l-2.9-0.1c-28.5-0.7-57.5-1.2-86.1-1.3l-20.9-0.1
				l-20.9,0.1c-28.4,0.1-57.2,0.6-85.6,1.3l-62,1.6v-20c-18.9,10.1-39.5,18.2-61.7,24.4v2.7l-19.5,2.1c-6,1.3-12.1,2.5-18.2,3.5
				l-70.4,11.8v-5.7l-21.2,2.3v174.2l-54.4,5.5c-32.9,3.3-66.2,7.1-98.9,11.2c-21.2,2.7-42.5,0.9-63.3-5.3
				c-20.5-6.1-39.3-16-55.7-29.2c-16.9-13.6-30.7-30.4-41.2-50.1c-11.2-21.1-16.9-44.4-16.9-69.2V997.6l-1.3-0.1V788.8l69.1,10
				c68.4,9.9,138.3,18.2,207.7,24.8l20.5,1.9l20.6,1.8c74.2,6.3,149.8,10.9,224.7,13.4l34,1.2l6.7,0.2c32.8,0.8,66,1.2,98.8,1.2
				l14.3,0l14.4-0.1c29-0.1,58.4-0.6,87.4-1.3l42-1.1c29.4-1,59.2-2.3,88.5-3.8l25.2-1.3l25.3-1.6c28.5-1.8,57.3-4,85.7-6.4
				l20.5-1.7l20.5-1.9c68-6.4,136.6-14.5,203.6-24l69-9.8v208l-56.6,3.6c-2.4,0.2-4.9,0.3-7.3,0.5
				C1618.1,1115.5,1618.1,1228.8,1618.1,1342.1z"/>
		</g>
		<g>
			<path class="st0" d="M363.9,858.6v82.2c6.3,0.4,12.6,0.8,18.9,1.2c-5.9,7-11.8,14.2-17.6,21.5c0,124.4-0.1,248.8-0.1,373.1
				c28.4-3.4,56.8-6.7,85.1-10.1c0-119.8,0-239.5,0-359.3c0-6.6,0-13.2,0-19.8c20.6,1.1,41.3,2.2,62.1,3.2c20.7,1,41.5,1.9,62.3,2.8
				v-69.5C504,877.1,433.7,868.7,363.9,858.6z"/>
			<path class="st0" d="M616.2,953.8c6.4,0.2,12.8,0.5,19.1,0.7c-6,6-11.9,12.2-17.9,18.4v162.9l86.4-9.4V957.9
				c17.6,0.5,35.3,1,52.9,1.4v6.2c0,2.9-1.4,5.6-4.3,7.9c-2.8,2.4-6.3,4.6-10.2,6.6c-4,2-8.3,3.8-13,5.4c-4.7,1.5-8.9,3-12.6,4.5
				v52.8c5.7-0.1,11.8-1.5,18.3-4c6.5-2.6,13.8-5.1,21.8-7.6v13.5c0,5.3-3.5,10.3-10.5,14.8c-7,4.6-16.9,10-29.7,16.4v50.8
				c22.9-3.8,53.4-11.5,82.6-27.4c14.3-7.8,23-16.2,31.8-26.2c8.6-9.6,12.8-19.5,12.8-29.8V901.1c-76.1-2.6-152.1-7.1-227.8-13.6
				V953.8z"/>
			<path class="st0" d="M1014.6,953.2c-14.1,14.3-28.3,28.6-42.4,42.9v-33.7c4.4,0,8.8,0,13.3,0v-58.7c-33.4,0-66.8-0.5-100.2-1.3
				c0,72.5,1.2,136.5,1.2,209c29-0.7,57.9-1.2,86.9-1.3c0-20.1-1.2-31.8-1.2-52c14.1-14.3,28.3-28.6,42.4-42.9
				c0,34.5,1.2,60.4,1.2,94.9c29.1,0.2,58.2,0.6,87.3,1.4c0-47.9-1.2-87.3-1.2-135.1c-6-5.3-12-10.6-18-15.8
				c6.4-0.1,12.8-0.1,19.3-0.2v-58.1c-29.5,0.7-59.1,1.2-88.6,1.3V953.2z"/>
			<path class="st0" d="M1286.6,1005.9c0,2.7-1.1,5.4-3.4,8c-2.3,2.6-5,5-8.3,7.2c-3.3,2.2-6.8,4.2-10.5,6c-3.7,1.8-7,3.3-9.8,4.5
				c-6.4,2-12.8,4-19.2,6V897.4c-29.9,1.6-59.8,2.9-89.7,3.9V960c6.4-0.1,12.8-0.2,19.2-0.3c-5.4,5.7-10.8,11.5-16.2,17.1v138.5
				c28.9,2.6,57.8,5.1,86.7,7.7v-39.8c25.6-0.5,42.7-2.1,51.2-5v48.1c29,2,57.9,6.7,86.9,9.3V887.9c-28.9,2.4-57.9,4.6-86.9,6.5
				V1005.9z"/>
			<path class="st0" d="M1415.1,884.2v68.1c24.6-1,49.2-2.2,73.7-3.4c-5.5,6.5-11,12.9-16.5,19.2V1320c28.5,3.3,57,6.8,85.3,10.7
				V945.2c21.4-1.2,42.7-2.5,63.9-3.9v-81.5C1553.1,869.6,1484.2,877.7,1415.1,884.2z"/>
		</g>
	</g>
	<path class="st3" d="M850.1,972.5c-9.3,0-18.5,0-27.8,0c10.1,10.1,20.2,20.2,30.2,30.2C851.7,992.6,850.9,982.6,850.1,972.5z"/>
	<path class="st2" d="M694.2,1204.7c8.5,24.6,16.9,49.2,25.4,73.8c-9.3-10.1-18.5-20.2-27.8-30.2c-31,14.1-62.1,28.2-93.1,42.3
		c36.3,4.8,72.6,9.7,108.8,14.5c-14.5,30.2-29,60.5-43.5,90.7c22-14.3,51.5-30.5,88.3-43.5c42.4-15,80.3-20.8,108.8-23
		c-36.3-6-72.6-12.1-108.8-18.1c60.6-14,139.6-26.6,232.4-26.6c93.1,0,172.5,12.6,233.2,26.6c-36.3,6-72.6,12.1-108.8,18.1
		c28.5,2.2,66.4,7.9,108.8,23c36.8,13,66.3,29.3,88.3,43.5c-14.5-30.2-29-60.5-43.5-90.7c36.3-4.8,72.6-9.7,108.8-14.5
		c-31-14.1-62.1-28.2-93.1-42.3c-9.3,10.1-18.5,20.2-27.8,30.2c8.5-24.6,16.9-49.2,25.4-73.8c-72.8-19.1-172.1-37.5-290.6-37.5
		C866.5,1167.1,767,1185.6,694.2,1204.7z"/>
	<g>
		<g>
			<path class="st3" d="M852.5,1234c1.2,8,2.4,16.1,3.6,24.1c-1.4,0.2-2.9,0.1-4.3-0.2c-1.5-0.4-2.9-0.9-4.2-1.7
				c-1.3-0.8-2.4-1.7-3.4-2.7c-0.9-1-1.5-2.1-1.7-3.3c-1.9-11.6-3.8-23.1-5.7-34.7c13.5-2.2,27.1-4.2,40.7-5.8c-1-8.3-2-16.6-3-24.8
				c-23.7,2.8-47.3,6.6-70.8,11.2c1.6,8,3.2,16.1,4.8,24.1c2.1-0.4,4.1-0.8,6.2-1.2c-1.5,2.6-3,5.2-4.5,7.8
				c1.8,9.2,3.6,18.4,5.4,27.6c0.9,4.3,2.7,8.2,5.5,11.7c2.8,3.5,6.1,6.3,9.8,8.7c3.8,2.3,7.8,4.1,12,5.1c4.2,1.1,8.3,1.3,12.1,0.7
				c10.1-1.6,20.3-3,30.4-4.2c-1.8-15.3-3.7-30.7-5.5-46C870.8,1231.4,861.6,1232.6,852.5,1234z M897.1,1182.4
				c0.8,8.2,1.6,16.3,2.3,24.5c2.1-0.2,4.2-0.4,6.3-0.6c-1.6,2.5-3.1,5-4.6,7.5c1.9,20.1,3.8,40.1,5.7,60.2
				c8.7-0.8,17.5-1.5,26.2-2.1c-1.4-22.3-2.8-44.6-4.3-66.9c5.6-0.4,11.1-0.7,16.7-0.9c0.3,6.3,0.6,12.5,0.9,18.8
				c0.1,1.3-0.4,2.5-1.3,3.6c-0.9,1.1-2,2.2-3.2,3.1c-1.2,0.9-2.5,1.7-3.7,2.4c-1.3,0.7-2.2,1.2-2.8,1.5c0.4,7,0.8,14,1.2,21
				c1.4-0.3,3.2-0.7,5.3-1.3c2.1-0.6,4.1-1.2,5.8-2c0.3,6.6,0.6,13.2,0.9,19.8c8.8-0.4,17.6-0.7,26.4-0.8
				c-0.5-30.7-0.9-61.4-1.4-92.1C948,1178.6,922.5,1180,897.1,1182.4z M1052,1199.8c-4.9,6.1-9.8,12.3-14.5,18.5
				c-4.1-7-8.2-13.9-12.5-20.8c0.3-6.2,0.5-12.4,0.8-18.7c-9.9-0.4-19.8-0.6-29.6-0.7c-0.1,8.2-0.1,16.4-0.2,24.6
				c2.1,0,4.2,0,6.3,0.1c-2,2.2-4,4.5-5.9,6.7c-0.2,20.2-0.4,40.5-0.6,60.7c8.8,0.1,17.6,0.3,26.4,0.7c0.6-14.7,1.2-29.4,1.8-44.1
				c4.2,6.5,8.4,12.9,12.4,19.4c4.6-5.9,9.4-11.8,14.2-17.7c-1,14.6-2,29.1-3.1,43.7c8.8,0.6,17.6,1.4,26.3,2.3
				c3.1-30.5,6.2-61.1,9.3-91.6c-9.8-1-19.7-1.8-29.6-2.5C1052.9,1186.9,1052.5,1193.3,1052,1199.8z M1161.8,1219.7
				c1.6-8.2,3.1-16.4,4.7-24.6c-20.3-3.9-40.6-7.1-61-9.7c-1,8.1-2,16.2-3.1,24.4c2.1,0.3,4.2,0.5,6.2,0.8c-2.2,2-4.5,4-6.7,6
				c-1.2,9.3-2.3,18.6-3.5,27.9c-0.6,4.4-0.1,8.6,1.2,12.8c1.3,4.1,3.3,7.9,6,11.3c2.6,3.4,5.8,6.2,9.6,8.6
				c3.8,2.4,7.9,3.9,12.4,4.6c7.2,1.2,14.3,2.5,21.5,3.8c1.5-8,3.1-16,4.6-24c-6.9-1.3-13.7-2.6-20.6-3.7c-0.9-0.5-1.9-1.1-2.8-1.9
				c-1-0.8-1.8-1.7-2.5-2.7c-0.7-1-1.3-2.1-1.7-3.3c-0.4-1.2-0.5-2.3-0.3-3.5c0.1-0.3,0.1-0.7,0.2-1c6.9,1.1,13.8,2.2,20.7,3.5
				c1.3-7.1,2.6-14.2,3.9-21.3c-7-1.3-14.1-2.5-21.2-3.6c0.5-3.3,1-6.6,1.5-9.9C1141.1,1215.9,1151.4,1217.7,1161.8,1219.7z"/>
		</g>
	</g>
	<path class="st1" d="M1171.9,1326.8c21.8,0.4,41.8,2.1,59.6,4.5c6.3-17.6,12.6-35.2,18.9-52.8c8.5-24.6,16.9-49.2,25.4-73.8
		c-20.4,31.1-40.8,62.3-61.2,93.4c-57.8-15.1-137-29.7-231.5-29.3c-92.2,0.4-169.5,14.9-226.4,30c-20.8-31.4-41.6-62.7-62.5-94.1
		c7.5,23.8,15.9,48.4,25.4,73.8c7.9,21.1,16,41.4,24.1,60.8c6.6-1.9,15.1-4,24.9-5.9c11.4-2.2,20.1-3,26.4-3.7
		c32.1-3.2,56.4-1.2,66-0.5c-36.3-6-72.6-12.1-108.8-18.1c60.6-14,139.6-26.6,232.4-26.6c93.1,0,172.5,12.6,233.2,26.6
		c-36.3,6-72.6,12.1-108.8,18.1C1118,1328.4,1140.8,1326.2,1171.9,1326.8z"/>
	<g>
		<defs>
			<path id="SVGID_125_" d="M338.4,1062.4c190.2-30.9,415-54.4,667.4-56c256.2-1.6,484.3,26.2,677,55.5
				c-42,129.3-83.9,258.6-125.9,387.9c-143.1-34.8-331.2-66.2-552.5-66c-253.7,0.2-465.8,42-620,84.7
				C369,1333.2,353.7,1197.8,338.4,1062.4z"/>
		</defs>
		<clipPath id="SVGID_126_">
			<use xlink:href="#SVGID_125_"  style="overflow:visible;"/>
		</clipPath>
		<g class="st84">
			<path class="st2" d="M1036.3,939.3l45.1-0.4v-14.3c-15,0.3-30.1,0.5-45.1,0.7V939.3z"/>
			<path class="st2" d="M638,932.8l47.6,1.7l-1,1l20,0.6c17.5,0.5,35.2,1,52.8,1.4l21.3,0.5v27.5c0,9.4-4.3,18.1-12,24.6
				c-4.1,3.4-8.9,6.6-14.4,9.3c-4.3,2.2-8.9,4.1-13.7,5.8v9c3.8-1.3,7.7-2.6,11.8-3.9l28.3-9v43.2c0,9-3.5,22-20.3,33
				c-5.2,3.4-11.7,7.2-19.8,11.5v10.7c18.5-4.8,35.4-11.4,50.4-19.6c11.1-6.1,17.7-12.2,26-21.5c7.3-8.2,7.3-13.6,7.3-15.4V922.1
				c-61.4-2.4-123.2-6-184.2-10.9V932.8z"/>
			<path class="st2" d="M950.4,1049.1V940.6l13.3,0v-15.2c-18.8-0.1-37.8-0.4-56.6-0.7c0.1,28.2,0.3,55.5,0.6,82.1
				c0.2,26.7,0.5,54.1,0.6,82.4c14.3-0.3,28.6-0.5,42.9-0.6c0-1.2-0.1-2.4-0.1-3.6c-0.3-8-0.6-16.3-0.6-26.8
				C950.4,1055.2,950.4,1052.1,950.4,1049.1z"/>
			<path class="st2" d="M1170.4,985.5v109.9l43.2,3.8V939.7l-32.9,34.9C1177.4,978.2,1173.9,981.8,1170.4,985.5z"/>
			<path class="st2" d="M1080.1,986.3c-3.5-3.1-7.1-6.2-10.6-9.3l-33.2-29.1c0,22.5,0,45,0,67.4c0,17,0.3,32.3,0.6,47
				c0.2,8.5,0.4,17.2,0.5,26.3c14.6,0.1,29.2,0.4,43.8,0.7C1080.9,1055,1080.5,1020.6,1080.1,986.3z"/>
			<path class="st2" d="M1494.1,976.2v324.4c13.9,1.7,27.9,3.4,41.8,5.2V927.1l-30.5,35.9C1501.7,967.4,1497.9,971.8,1494.1,976.2z"
				/>
			<path class="st2" d="M1436.8,904v25.6c17-0.7,34-1.6,50.9-2.4l48.1-2.4v-0.1l20.5-1.2c14.4-0.8,29-1.7,43.4-2.6v-36.1
				C1545.9,892.2,1491.3,898.6,1436.8,904z"/>
			<path class="st2" d="M1308.4,1005.9c0,5.6-1.5,14-8.8,22.3c-3.5,4-7.7,7.7-12.5,10.9c-4.1,2.8-8.5,5.3-13.1,7.5
				c-4.1,2-7.7,3.7-11,5l-0.9,0.4l-1,0.3c-6.3,2-12.7,4-19.3,6l-9.8,3l3-0.1c31.9-0.7,41.8-2.9,44.6-3.9l28.8-9.8v58.6
				c10.1,1,20,2.3,29.8,3.4c4.5,0.5,9,1.1,13.5,1.6V911.5c-14.4,1.1-28.9,2.2-43.3,3.2V1005.9z"/>
			<path class="st2" d="M1167.4,937.9l46.2-0.8v-16.8c-15.4,0.7-30.8,1.4-46.2,2V937.9z"/>
			<path class="st2" d="M682.1,938v168.9l-42.9,4.6V981.7c3.8-4,7.7-7.9,11.6-11.9L682.1,938z"/>
			<path class="st2" d="M385.7,883.7v36.7l41.4,2.6l-27.5,33c-4.2,5-8.4,10.1-12.6,15.2v342.5c13.8-1.8,27.6-3.6,41.5-5.3v-384
				l23,1.2c33.5,1.8,67.6,3.5,101.5,5v-27.1C497,898,440.9,891.3,385.7,883.7z"/>
		</g>
	</g>
</g>
</svg>
