<?xml version="1.0" encoding="utf-8"?>
<!-- Generator: Adobe Illustrator 23.0.1, SVG Export Plug-In . SVG Version: 6.00 Build 0)  -->
<svg version="1.1" id="Layer_1" xmlns="http://www.w3.org/2000/svg" xmlns:xlink="http://www.w3.org/1999/xlink" x="0px" y="0px"
	 viewBox="0 0 1024 1024" style="enable-background:new 0 0 1024 1024;" xml:space="preserve">
<style type="text/css">
	.st0{fill:#F78D1E;}
	.st1{fill:#FDFEFE;}
</style>
<circle class="st0" cx="512.2" cy="512.8" r="510"/>
<g id="XMLID_6_">
	<path id="XMLID_8_" class="st1" d="M512.2,523.7c96.6,0,175.2-78.6,175.2-175.2c0-96.6-78.6-175.2-175.2-175.2S337,251.9,337,348.5
		C337,445.1,415.6,523.7,512.2,523.7z M512.2,276c40,0,72.5,32.5,72.5,72.5c0,40-32.6,72.5-72.5,72.5c-40,0-72.5-32.6-72.5-72.5
		C439.7,308.5,472.3,276,512.2,276z"/>
	<path id="XMLID_7_" class="st1" d="M583.1,666.6c35.7-8.1,70.1-22.2,101.7-42.1c24-15.1,31.2-46.8,16.1-70.8
		c-15.1-24-46.8-31.3-70.8-16.1c-71.8,45.1-164.2,45.1-235.9,0c-24-15.1-55.7-7.9-70.8,16.1c-15.1,24-7.9,55.7,16.1,70.8
		c31.7,19.9,66.1,34,101.7,42.1l-97.9,98c-20,20-20,52.5,0,72.6c10,10,23.1,15,36.3,15c13.2,0,26.3-5,36.3-15l96.2-96.3l96.3,96.3
		c20,20,52.5,20,72.5,0c20.1-20.1,20.1-52.6,0-72.6L583.1,666.6z"/>
</g>
</svg>
