<?xml version="1.0" encoding="utf-8"?>
<!-- Generator: Adobe Illustrator 23.0.1, SVG Export Plug-In . SVG Version: 6.00 Build 0)  -->
<svg version="1.1" xmlns="http://www.w3.org/2000/svg" xmlns:xlink="http://www.w3.org/1999/xlink" x="0px" y="0px"
	 viewBox="0 0 1024 1024" style="enable-background:new 0 0 1024 1024;" xml:space="preserve">
<style type="text/css">
	.st0{enable-background:new    ;}
	.st1{display:none;}
	.st2{display:inline;}
	.st3{fill-rule:evenodd;clip-rule:evenodd;fill:#4680C2;}
	.st4{fill:#4680C2;}
	.st5{fill-rule:evenodd;clip-rule:evenodd;fill:#FCFCFC;}
</style>
<g id="icon_1_" class="st0">
	<g id="icon" class="st1">
		<g class="st2">
			<path class="st3" d="M669,0H354.98C68.26,0,0,68.26,0,354.98V669c0,286.71,68.27,354.97,354.98,354.97H669
				c286.7,0,354.98-68.27,354.98-354.97V354.98C1023.98,68.26,955.7,0,669,0z"/>
		</g>
	</g>
	<circle class="st4" cx="513.4" cy="511.99" r="510"/>
</g>
<g id="vk_1_" class="st0">
	<path class="st5" d="M840.23,352.57c4.76-15.8,0-27.43-22.66-27.43h-74.95c-19.06,0-27.84,10.03-32.61,21.1
		c0,0-38.12,92.48-92.11,152.55c-17.46,17.39-25.41,22.93-34.94,22.93c-4.76,0-11.65-5.54-11.65-21.34V352.57
		c0-18.96-5.53-27.43-21.42-27.43H432.1c-11.91,0-19.07,8.81-19.07,17.15c0,17.98,27,22.13,29.79,72.72v109.86
		c0,24.09-4.37,28.46-13.9,28.46c-25.41,0-87.22-92.89-123.87-199.19c-7.19-20.66-14.39-29.01-33.54-29.01h-74.95
		c-21.42,0-25.7,10.03-25.7,21.1c0,19.76,25.41,117.77,118.31,247.4c61.94,88.52,149.2,136.51,228.6,136.51
		c47.64,0,53.54-10.66,53.54-29.02v-66.9c0-21.33,4.51-25.57,19.6-25.57c11.11,0,30.17,5.52,74.64,48.21
		c50.82,50.58,59.19,73.28,87.78,73.28h74.95c21.41,0,32.11-10.66,25.94-31.69c-6.77-20.96-31.03-51.38-63.22-87.43
		c-17.47-20.55-43.68-42.68-51.62-53.75c-11.12-14.22-7.94-20.55,0-33.19C739.38,524.09,830.7,396.04,840.23,352.57"/>
</g>
</svg>
